<?xml version="1.0" standalone="no"?>
<!DOCTYPE svg PUBLIC "-//W3C//DTD SVG 1.1//EN" "http://www.w3.org/Graphics/SVG/1.1/DTD/svg11.dtd" >
<svg xmlns="http://www.w3.org/2000/svg" xmlns:xlink="http://www.w3.org/1999/xlink" version="1.1">
<metadata>
Created by FontForge 20170731 at Wed Oct 18 01:13:21 2017
 By Aleksey,,,
Copyright (c) 2017 by Michael Hassler. All rights reserved.
</metadata>
<defs>
<font id="ComicInk" horiz-adv-x="869" >
  <font-face 
    font-family="Comic Ink"
    font-weight="400"
    font-stretch="normal"
    units-per-em="1000"
    panose-1="2 0 5 3 0 0 0 2 0 4"
    ascent="750"
    descent="-250"
    x-height="629"
    cap-height="735"
    bbox="-46.5652 -32 906.091 753.962"
    underline-thickness="50"
    underline-position="-200"
    unicode-range="U+0020-201D"
  />
<missing-glyph horiz-adv-x="500" 
 />
    <glyph glyph-name=".notdef" horiz-adv-x="500" 
 />
    <glyph glyph-name=".null" horiz-adv-x="0" 
 />
    <glyph glyph-name="nonmarkingreturn" horiz-adv-x="333" 
 />
    <glyph glyph-name="_0" horiz-adv-x="473" 
 />
    <glyph glyph-name="_0" horiz-adv-x="473" 
 />
    <glyph glyph-name="space" unicode=" " horiz-adv-x="397" 
 />
    <glyph glyph-name="exclam" unicode="!" horiz-adv-x="398" 
d="M232 216q-10 -15 -52.5 -17.5t-52.5 14.5q-6 9 -4 62q1 12 18 317q3 45 4 63q3 52 8 59q7 10 45 15q45 3 56 -7q5 -5 7 -15t2 -25t-1 -27.5t-2.5 -30t-1.5 -24.5t-17 -324q-4 -54 -9 -60zM270 97q5 -16 0 -36q-6 -20 -35 -37t-60 -19q-36 -4 -67.5 12.5t-32.5 45.5
q-1 21 19 44q26 26 77 31q31 3 61.5 -9t37.5 -32z" />
    <glyph glyph-name="quotedbl" unicode="&#x22;" horiz-adv-x="527" 
d="M442 737q4 -13 -19 -66q-22 -47 -50 -118q-2 -4 -5 -12.5t-5 -13t-5.5 -10.5t-7.5 -9.5t-9 -5.5q-16 -8 -43 -5.5t-32 14.5q-4 3 -2 15t3.5 17t6 17t5.5 16q8 25 23.5 66.5t18.5 49.5q1 4 5 14.5t6.5 16.5t6.5 13t8 9q9 6 50 8q39 5 45 -16zM210 739q32 2 40 -8
q3 -5 4 -11.5t-1 -14.5t-4 -14t-5.5 -14.5t-4.5 -11.5q-18 -44 -52 -123q-19 -48 -32 -55q-10 -7 -43 -6.5t-36 17.5q-3 16 16 65q6 17 21 55.5t23 62.5q1 2 4 12t4.5 13.5t4.5 10t6.5 10t7.5 5.5q9 5 47 7z" />
    <glyph glyph-name="numbersign" unicode="#" horiz-adv-x="717" 
d="M573 534q12 -6 45 -1t43 -7q10 -10 10 -32.5t-10 -33.5q-9 -11 -54 -13q-4 0 -19.5 -1t-25 -2.5t-13.5 -5.5t-7.5 -14t-6 -24t-3.5 -18t-5.5 -21.5t-4 -20t0.5 -19.5q12 -7 48.5 -1.5t47.5 -6.5q9 -10 7.5 -34t-7.5 -32q-5 -6 -15.5 -9t-20 -4t-26 -1.5t-23.5 -0.5
l-29 -3q-3 -1 -5 -4t-3.5 -6t-3 -8t-2.5 -9t-2 -11t-2 -11q-6 -22 -14 -57t-12 -51q-10 -42 -25 -47q-16 -7 -43 -6t-35 10q-4 5 -5 14.5t1.5 21.5t5 21.5t6 21.5t4.5 15q17 74 18 93q-10 5 -61 1q-54 -3 -60 -6q-3 -2 -6 -8t-4.5 -11.5t-4 -15.5l-3.5 -14
q-4 -19 -11.5 -52.5t-12.5 -53.5q-8 -32 -18 -42t-42 -12q-39 -2 -46 17q-3 8 5 47q2 9 5.5 25t4.5 20q2 12 7 30.5t8 32t3 25.5q-13 7 -53 1.5t-50 5.5q-11 9 -10.5 33.5t9.5 34.5q4 5 11.5 8t18.5 4t20 2t22 1.5t19 0.5q29 2 32 4q5 3 8.5 13t7 26t4.5 18q10 47 9 61
q-11 8 -61.5 1.5t-55.5 11.5q-6 13 -4 32.5t8 26.5q2 3 5 5t7.5 4t8 3t10.5 1.5t10 1t12 1t12 0.5q6 1 23.5 1t29.5 1.5t18 5.5q7 6 16 49q3 10 7 28t5 24q2 8 5.5 26.5t6 30t7.5 23.5t12 16q12 10 46 9t40 -15q5 -11 -5 -47q-5 -26 -10 -44q-16 -64 -18 -88q4 -8 28 -5
q5 1 16 1.5t17 0.5q56 3 61 6q4 2 8 10.5t7 21t5.5 23t4.5 23.5t3 16q1 5 5.5 22.5t6.5 26.5q1 5 3 16t3 15.5t4 10.5t7 10q14 12 49 11.5t41 -16.5q4 -10 -5 -47q-2 -9 -5.5 -25.5t-4.5 -18.5q-2 -11 -6.5 -29t-7 -32t-2.5 -27zM415 432q-75 -2 -102 -10q-6 -12 -17 -57
q-1 -4 -4.5 -18.5t-4.5 -24.5t0 -19q9 -3 61 0q54 5 62 9q6 12 17 57q10 49 9 61q-3 3 -6 3.5t-8 -0.5t-7 -1z" />
    <glyph glyph-name="dollar" unicode="$" horiz-adv-x="687" 
d="M610 628q14 -8 20.5 -12.5t13 -15t5.5 -24.5q-3 -24 -28 -40q-21 -16 -64 -15t-61 23q-3 4 -7 17.5t-8 16.5q-11 10 -62 10q-5 -6 -7.5 -17t-3 -18t-0.5 -24.5v-22.5q0 -6 -2.5 -29t-2.5 -29.5t2 -27.5q8 -6 18 -8.5t24.5 -4t20.5 -2.5q37 -7 68.5 -19t58.5 -37t31 -57
q5 -40 -10 -69q-23 -49 -98 -88q-46 -24 -100 -37q-32 -7 -35 -11q-4 -7 -5 -33t-8 -34q-8 -11 -47 -13q-35 -3 -45 11q-6 8 -4.5 29t-2.5 30q-9 4 -20 5.5t-26 2.5t-22 2q-71 8 -121 34q-37 20 -37 39q0 4 1 7.5t3.5 6t4 4.5t6 4.5t6.5 3.5t7 3t6 3q36 18 49 18
q10 0 34 -14q59 -36 112 -31q8 13 12 84q1 13 1 47q3 38 0 41q-2 4 -52 15q-26 5 -53 13q-60 19 -85 49q-18 22 -20.5 59t12.5 67q12 24 38 45.5t55 34.5q42 19 61 25q59 16 66 19q4 9 4.5 27t6.5 27q11 14 46.5 16t47.5 -15q5 -7 5 -20.5t2 -21.5q8 -5 18 -7t26.5 -2.5
t23.5 -1.5q71 -10 121 -38zM302 505q2 59 0 68q-23 2 -55 -18q-44 -28 -43 -62q1 -29 44 -45q31 -13 46 -10q6 24 8 67zM405 321q-3 0 -7 -5q-4 -9 -6 -70q-5 -55 0 -68q10 -3 50 16q58 29 55 68q-1 25 -30.5 42t-61.5 17z" />
    <glyph glyph-name="percent" unicode="%" 
d="M692 645q-28 -39 -81 -110t-78 -106q-28 -39 -93 -125.5t-99 -133.5q-11 -15 -44 -60.5t-51 -69.5q-27 -35 -37 -37q-16 -4 -38 5t-24 25q-2 13 19 43q45 62 178 240.5t206 279.5q-83 -4 -125 4q13 -86 -32 -157q-23 -34 -65.5 -60t-96 -34t-104.5 20q-37 20 -60 61.5
t-19 95.5q1 37 16 72q22 52 75 91q36 27 83 37t104 -6q6 -2 16 -7.5t15 -7.5q23 -8 71 -14q107 -15 204 22q4 2 10.5 6t12.5 6.5t11 2.5q13 1 32 -8.5t20 -23.5t-26 -51zM290 460q20 13 35 41.5t14 57.5q-1 38 -26.5 60t-61.5 20q-28 -1 -54 -13q-10 -4 -29 -26
q-17 -21 -21 -30q-14 -33 -7.5 -65.5t28.5 -49.5q33 -19 65 -15.5t57 20.5zM781 321q38 -51 33 -125q-5 -63 -45 -111.5t-97 -70.5q-63 -22 -121 -5t-88 59q-28 38 -29 98t25 105q35 62 100 93q31 14 70 18q48 4 89 -13t63 -48zM716 164q22 53 -6 94t-83 34q-38 -5 -67 -32
t-36 -67q-9 -53 30 -85q43 -30 94 -8.5t68 64.5z" />
    <glyph glyph-name="ampersand" unicode="&#x26;" horiz-adv-x="741" 
d="M417 427q6 -3 14 -4t14 -0.5t16.5 1.5t15.5 1q9 1 124 10q46 4 57 -6q9 -9 8.5 -31t-8.5 -31q-10 -11 -56 -13q-24 -2 -66 -4.5t-62 -3.5q-4 0 -20.5 -1t-26 -2.5t-13.5 -5.5t-6 -18.5t-1 -29t0 -26.5q-1 -31 -5 -80.5t-5 -72.5v-26t-1 -31t-5 -18q-6 -12 -31 -21
q-27 -14 -42 -10q-15 3 -30 44q-60 165 -187 252q-3 2 -13 8t-17 11.5t-10 11.5q-5 8 -3.5 29t9.5 30t55 13q140 6 191 14q4 12 5 25.5t1.5 35t1.5 30.5q1 7 3 47q3 44 2 48q-2 9 -13 20.5t-13 18.5q-6 22 4 43.5t27 31.5q16 12 49 10t43 -22q4 -7 5 -16.5t-1 -27.5t-2 -23
q-1 -23 -3.5 -67.5t-4 -78.5t-0.5 -65zM271 331h-11t-12 -0.5t-8.5 -2t-6.5 -5.5q3 -8 8.5 -14.5t14 -13.5t11.5 -11q4 -4 10.5 -13t12 -15.5t13.5 -9.5q3 5 4.5 12t1.5 13t0.5 16.5t0.5 14.5q0 3 1 10t0.5 11t-3.5 8q-6 2 -37 0z" />
    <glyph glyph-name="quotesingle" unicode="'" horiz-adv-x="287" 
d="M183 697q19 -15 19 -52q0 -12 -0.5 -38.5t0.5 -40.5q0 -2 -0.5 -9t-0.5 -9.5t-1 -7.5t-2.5 -7.5t-4 -5.5t-6.5 -5q-9 -5 -28 3.5t-30 21.5q-10 12 -14 44q-6 37 -17 88q-6 33 5 45q21 24 80 -27z" />
    <glyph glyph-name="parenleft" unicode="(" horiz-adv-x="405" 
d="M267 724q14 3 36.5 -6t25.5 -24q2 -12 -5 -24.5t-22 -28t-16 -16.5q-86 -116 -101 -236q-13 -100 25 -194q13 -36 63 -106q17 -21 16.5 -37t-22.5 -31q-25 -17 -38 -16q-25 1 -65 65q-29 45 -45 84q-46 110 -33 225q14 128 86 239q26 40 56 75q23 28 39 31z" />
    <glyph glyph-name="parenright" unicode=")" horiz-adv-x="363" 
d="M140 728q15 3 24 -2t21 -21q127 -156 108 -348q-18 -172 -145 -317q-22 -27 -36 -30q-18 -2 -38 8.5t-22 22.5t2 22t16 22l11 12q67 83 93 158q19 57 23 118q5 81 -18 143.5t-67 123.5q-1 2 -6.5 8.5t-9 11.5t-6.5 12t-2 14q1 13 18.5 26t33.5 16z" />
    <glyph glyph-name="asterisk" unicode="*" horiz-adv-x="551" 
d="M326 607q19 0 63 18q1 0 16.5 7t27.5 10t21 1q16 -5 23 -23q10 -23 7 -38q-1 -4 -3.5 -7.5t-7 -6t-8.5 -5t-10 -5t-10 -4t-11 -4t-10 -3.5q-8 -3 -24 -8t-26 -9.5t-17 -10.5q4 -11 8.5 -18t13 -16t12.5 -13q1 -1 8 -9t11 -13t7.5 -13.5t2.5 -16.5q-1 -14 -22 -30
q-24 -16 -35 -16q-10 0 -17 5.5t-18.5 20.5t-12.5 16q-2 2 -7.5 9t-10 12.5t-9.5 11.5t-9.5 9.5t-7.5 3.5q-4 0 -8 -3.5t-9.5 -11.5t-7.5 -11q-5 -7 -13.5 -16t-9.5 -10q-3 -4 -11 -15t-12.5 -17t-11.5 -12t-13 -7q-15 -3 -38 10q-20 13 -23 25q-1 8 3 18.5t7.5 15.5
t13.5 16l9 10q34 41 39 52q-8 9 -62 17.5t-57 31.5q-2 14 8.5 34t21.5 24q20 2 21 3t22 -4l22 -5q44 -10 61 -12q11 12 10 58t10 59q11 14 40.5 14.5t39.5 -14.5q8 -10 3 -50.5t0 -54.5z" />
    <glyph glyph-name="plus" unicode="+" horiz-adv-x="691" 
d="M392 364q8 -3 56 0q20 2 59 4.5t56 3.5q43 4 52 -6q9 -11 9 -29.5t-7 -29.5q-5 -8 -18 -12t-25.5 -5t-34.5 -2t-33 -2t-31.5 -2.5t-30.5 -2.5q-52 -3 -56 -8q-4 -4 -6 -22.5t-2.5 -47t-0.5 -29.5q-2 -82 -13 -93q-8 -9 -34.5 -11.5t-38.5 6.5q-5 4 -7 11.5t-2.5 19
t0 19.5t2 22t1.5 19q3 95 3 96q-9 4 -55 2q-26 -2 -116 -8q-43 -4 -52 6q-10 12 -8.5 34t11.5 31q8 7 52 12q16 2 79.5 6t91.5 8q5 18 10 98q1 10 1 27t0.5 25.5t2.5 20.5t6.5 17.5t13.5 10.5t22 6q28 2 39 -6q5 -4 7 -12t2.5 -19.5t0 -19.5t-2 -22.5t-1.5 -19.5
q-5 -82 -2 -96z" />
    <glyph glyph-name="comma" unicode="," horiz-adv-x="326" 
d="M209 208q31 0 37 -8q12 -15 -11 -61q-49 -110 -50 -113q-18 -43 -30 -50q-14 -8 -44 -8t-36 14q-4 4 -2 15t3.5 16.5t6 15.5t5.5 13q8 20 22 57.5t20 51.5q1 3 5 13l6 15t6 11.5t9 9.5q10 6 53 8z" />
    <glyph glyph-name="hyphen" unicode="-" horiz-adv-x="459" 
d="M324 354q40 3 48 -11q6 -11 4 -33t-8 -31q-3 -3 -7.5 -5.5t-12 -4t-12.5 -2t-16.5 -2t-15.5 -1.5q-28 -2 -76 -5.5t-69 -5.5q-59 -5 -70 2q-13 9 -13 36t12 39q9 9 53 11q35 2 119 10q2 0 26 1t38 2z" />
    <glyph glyph-name="period" unicode="." horiz-adv-x="333" 
d="M171 132q43 3 74 -16.5t19 -59.5q-7 -25 -45.5 -41.5t-76.5 -12.5q-26 3 -48 18t-23 38q-2 21 19 44q26 26 81 30z" />
    <glyph glyph-name="slash" unicode="/" horiz-adv-x="588" 
d="M449 712q18 5 39.5 -2t25.5 -19q4 -15 -14 -52q-58 -105 -159.5 -304t-150.5 -290q-2 -3 -5 -9t-5 -9t-5 -7t-6.5 -6.5t-7.5 -3.5q-18 -5 -39.5 2.5t-25.5 18.5q-4 14 13 48q46 88 66 128q12 24 43.5 82.5t45.5 86.5q7 15 14 29t15.5 30.5t13.5 26.5q53 97 110 213
q16 32 32 37z" />
    <glyph glyph-name="zero" unicode="0" horiz-adv-x="675" 
d="M356 734q116 13 201 -74q38 -40 61.5 -107t21.5 -141q-4 -122 -53.5 -216t-131.5 -144q-41 -25 -87 -37.5t-98.5 -7.5t-96.5 31q-116 66 -138 223q-10 77 7 157.5t52 138.5q37 61 82 100q75 65 180 77zM290 629q-46 -17 -88 -64q-37 -42 -59 -94q-24 -60 -26 -130
t21 -130q20 -49 62 -81.5t100 -33.5q41 0 74 12t67 37q39 32 65 77q24 40 39 105q15 63 7 128t-36 109q-30 46 -74 65q-35 16 -88 12q-41 -3 -64 -12z" />
    <glyph glyph-name="one" unicode="1" horiz-adv-x="366" 
d="M199 582q-11 2 -31 -18q-23 -20 -54 -47q-20 -18 -33 -18t-34 21q-20 23 -20 35q1 14 43 50q10 9 26.5 22t23.5 19q8 7 26.5 21t26.5 20q6 5 17 15.5t19 16.5t14 9q18 7 43.5 8t38.5 -10q8 -9 5 -86q-4 -91 -14 -269t-14 -266q-2 -73 -10 -83q-8 -11 -41 -15t-47 7
q-10 8 -8 65q4 76 23 435q2 55 0 68z" />
    <glyph glyph-name="two" unicode="2" horiz-adv-x="708" 
d="M222 110q23 -3 31.5 -3t33 2.5t33.5 3.5q86 5 202 13q9 1 26.5 3t29 2.5t23.5 -1t18 -6.5q12 -11 11 -36.5t-11 -36.5q-11 -11 -67 -13q-18 -1 -221 -16q-103 -9 -220 -17q-54 -4 -64 17q-5 15 -3.5 38t6.5 37q6 15 53 52q32 26 132 106.5t157 127.5q82 65 108 99
q35 52 26 93q-8 33 -43.5 50t-77 15.5t-80.5 -11.5q-50 -15 -84 -55q-3 -4 -8.5 -15t-11.5 -19t-14 -12q-12 -5 -62 -3q-37 2 -42 21q-7 22 29 67q81 106 253 121q28 2 56 0q74 -6 128 -33.5t73 -76.5q11 -30 8.5 -65.5t-15.5 -64.5q-22 -51 -86 -113q-6 -6 -110 -90
q-21 -16 -58 -47t-51 -43q-11 -9 -40 -30.5t-45 -34.5q-1 -1 -3 -2.5t-3.5 -2.5t-3 -2.5t-3 -2.5t-3 -2.5t-2.5 -3l-2 -3t-2 -3.5t-1 -4z" />
    <glyph glyph-name="three" unicode="3" horiz-adv-x="700" 
d="M525 399q2 -6 6.5 -9t11.5 -5t9 -3q102 -53 93 -163q-7 -71 -74 -129q-47 -42 -132 -69q-95 -32 -209.5 -17t-166.5 76q-26 30 -23 49q1 4 2.5 7.5t5.5 6t6.5 4.5t8.5 4t8 2.5t9 2.5t8 2q4 1 14.5 5t15 5t16 3t16.5 -1q5 -1 9.5 -5t7.5 -7.5t8 -9.5t7 -9q21 -23 35 -30
q47 -25 140 -13q93 14 139 75q33 47 18 92q-21 60 -137 69q-9 0 -39 -1t-48.5 1.5t-25.5 12.5q-8 16 -5.5 35.5t8.5 27.5q8 10 22.5 14t38.5 5t34 3q85 13 119 49q36 34 33 80q-2 35 -29 54.5t-64 23t-76 -3t-66 -20.5q-27 -15 -43 -30q-24 -24 -42 -28q-10 -1 -18 0
t-18.5 6t-14.5 6q-32 10 -34 26q-1 6 0.5 11.5t5 10.5t7 8.5t9 8.5t7.5 7q87 81 231 91q84 7 152.5 -17t98.5 -71q32 -48 18 -109q-13 -60 -78 -108q-4 -3 -11.5 -8l-13.5 -9t-10 -9z" />
    <glyph glyph-name="four" unicode="4" horiz-adv-x="669" 
d="M519 256q18 -8 38 -3.5t42.5 4t31.5 -13.5q6 -9 3 -34q-2 -26 -7 -33q-11 -14 -52 -16q-5 -1 -20 -1t-25.5 -1t-14.5 -5q-5 -4 -7 -17t-2 -37.5v-25.5q-2 -63 -13 -75q-10 -12 -49.5 -14.5t-51.5 9.5q-5 5 -6.5 14t-1.5 16t1.5 21t1.5 20q2 66 2 76q-9 6 -43 4
q-41 -3 -120 -9t-107 -8q-3 0 -17 -1.5t-20.5 -1.5h-17.5t-17.5 2.5t-10.5 7.5q-8 11 -7.5 41t5.5 45q3 8 21 33q30 41 85.5 110.5t78.5 100.5q95 126 139 181q3 4 11 15.5t13 18t12 13.5t13 10q8 4 19 5.5t25.5 2t18.5 1.5q50 0 54 -2q7 -4 10.5 -12.5t4 -21t0 -23
t-2.5 -26t-2 -22.5q-2 -52 -7 -147t-8 -147q0 -6 -1.5 -17t-1.5 -20t3 -17zM371 513q-61 -77 -152 -200q-46 -59 -57 -83q13 -5 55 -1q9 1 29.5 2.5t29.5 1.5q100 7 118 12q4 10 5 22t1 30.5v24.5q6 112 10 157q5 59 0 78h-3q-7 -4 -13 -11.5t-12.5 -17.5t-10.5 -15z" />
    <glyph glyph-name="five" unicode="5" horiz-adv-x="692" 
d="M261 621q-5 -9 -7.5 -21.5t-3 -31t-1.5 -25.5q-7 -65 -5 -82q11 -2 15 -2.5t15.5 2.5t15.5 3q82 15 150 4q93 -17 149 -69q47 -59 51 -111q8 -93 -61 -167q-35 -38 -93.5 -67t-123.5 -42q-88 -18 -174 0.5t-132 66.5q-23 26 -21 41q1 7 6.5 13t10 8t15 5.5t11.5 4.5
q5 2 14 6t14.5 6t13 3.5t15.5 0.5q15 -2 34.5 -21.5t22.5 -21.5q76 -43 171.5 -16t130.5 87q13 22 15 53t-10 56q-33 65 -132 72q-86 7 -195 -31q-45 -15 -58 -2q-6 6 -8 18t-1.5 21.5t3 25.5t2.5 20q3 37 9 95t8 85q0 4 1 26.5t3.5 37t6.5 21.5q2 4 6 6.5t10 4.5t11.5 3
t14 2t14 1.5l16.5 1.5t16 1q76 4 100 6q40 3 109 8t97 7q41 3 70 -13t29 -49q0 -29 -28 -50.5t-62.5 -22t-62.5 18.5q-3 2 -7 6.5t-7 6.5t-7 3q-10 1 -15.5 0.5t-17 -2t-16.5 -1.5q-108 -4 -147 -10z" />
    <glyph glyph-name="six" unicode="6" horiz-adv-x="672" 
d="M288 462q11 -2 15 -2t14 2.5l14 3.5q87 10 162.5 -18t109.5 -84q20 -30 23 -65q11 -101 -57 -175q-41 -44 -108 -73.5t-140 -35.5q-86 -8 -157 15t-110 71q-35 43 -36 106q0 81 58 166q13 19 29 39.5t37 44.5t32 38q62 79 148 183q3 4 14.5 19.5t20.5 24.5t18 13
q6 3 60 7q11 0 21.5 0.5t19 -4t10.5 -13.5q3 -14 -18 -40q-115 -139 -157 -188q-2 -2 -7 -7.5t-7.5 -8t-5.5 -8t-3 -11.5zM180 309q-23 -24 -32.5 -57.5t3.5 -75.5q10 -23 36 -40q57 -36 139.5 -26t129.5 52q32 28 41 60q13 42 2 75q-3 8 -17 27q-44 55 -156 47
q-93 -7 -146 -62z" />
    <glyph glyph-name="seven" unicode="7" horiz-adv-x="676" 
d="M468 603q-7 6 -31 4q-31 -1 -89.5 -4.5t-73.5 -4.5q-4 0 -28.5 -1t-35.5 -4q-9 -3 -23 -16.5t-21 -16.5q-32 -13 -65.5 -13.5t-57 20t-15.5 53.5q13 51 95 59q59 6 142 10q278 15 290 16q59 5 70 -9q6 -8 6 -29t-4 -35q-3 -11 -25 -44q-43 -67 -126 -188.5t-117 -172.5
q-9 -13 -26 -40t-27 -42q-5 -8 -24.5 -35t-30.5 -43q-5 -7 -14.5 -22.5t-15 -24t-13.5 -18t-14 -12.5q-13 -6 -67 -8q-48 -4 -54 16q-4 11 3 25t22 33t17 22q87 127 152 224q30 44 89 130.5t89 130.5q2 4 8 12t10 14.5t5 13.5z" />
    <glyph glyph-name="eight" unicode="8" horiz-adv-x="694" 
d="M536 395q10 -11 33 -28t33 -28q41 -47 36 -116q-5 -52 -44 -99q-69 -84 -216 -112q-72 -13 -145 -2.5t-125 43.5q-49 32 -68 80q-13 38 -8.5 77t22.5 69q17 27 49 55q9 9 29.5 22.5t29.5 21.5q-8 12 -25 27t-24 24q-22 30 -24.5 77t14.5 83q30 59 108 102q72 37 165 42
q101 6 177.5 -36t84.5 -121q6 -59 -38 -119q-10 -13 -32.5 -32.5t-31.5 -29.5zM213 547q-19 -61 29 -91.5t118 -24.5q53 3 100 32q45 31 54 71q13 59 -31 87t-105 24q-63 -5 -107.5 -30t-57.5 -68zM286 325q-41 -12 -75 -36.5t-47 -57.5q-11 -35 -2.5 -61t30.5 -43
q54 -39 140.5 -30t135.5 53q61 54 37 116q-14 37 -60 54t-103 13q-37 -4 -56 -8z" />
    <glyph glyph-name="nine" unicode="9" horiz-adv-x="677" 
d="M366 264q-9 0 -65 -4.5t-71 0.5q-65 8 -111 35q-30 18 -54 47t-32 61q-5 17 -5 51q0 108 94 180q91 70 236 76q114 6 191 -44q79 -51 85 -134q3 -59 -17 -109q-15 -38 -76 -118q-41 -52 -115 -142.5t-101 -123.5q-37 -45 -47 -49q-5 -2 -61 -7q-41 -2 -47 17q-1 3 -1.5 6
t0.5 6t2 5.5t3 5.5t3.5 5l4.5 6t4 5q23 29 67.5 82t63.5 76q4 5 9 10t10.5 11.5t8.5 9.5q20 27 21 36zM198 562q-26 -23 -40.5 -60t-0.5 -76q7 -20 23 -34q36 -35 100.5 -39.5t125 20t86.5 66.5q11 19 15.5 45.5t-1.5 52.5q-14 43 -60.5 62.5t-110.5 14.5q-88 -7 -137 -52z
" />
    <glyph glyph-name="colon" unicode=":" horiz-adv-x="342" 
d="M186 551q43 3 74 -16.5t19 -59.5q-7 -26 -45.5 -42.5t-76.5 -12.5q-26 3 -48 18.5t-23 38.5q-2 21 19 44q28 27 81 30zM163 219q43 3 75 -17t20 -59q-7 -26 -45.5 -42.5t-76.5 -12.5q-27 3 -48.5 18t-22.5 39q-1 23 19 43q26 26 79 31z" />
    <glyph glyph-name="semicolon" unicode=";" horiz-adv-x="370" 
d="M210 601q43 3 74 -17t20 -59q-8 -26 -46.5 -42.5t-76.5 -12.5q-26 3 -48 18t-23 38q-2 23 19 44q28 28 81 31zM220 270q32 0 37 -16q3 -4 0 -15t-5 -16.5t-7 -16t-6 -12.5q-6 -14 -50 -110q-1 -3 -5.5 -13.5t-7 -15.5t-7 -11.5t-9.5 -9.5q-11 -8 -41 -7.5t-37 14.5
q-2 5 -2.5 10.5t1.5 13t4 12t5.5 13t4.5 10.5q18 45 42 113q17 45 28 50q8 5 55 7z" />
    <glyph glyph-name="less" unicode="&#x3c;" horiz-adv-x="640" 
d="M204 306q8 -11 40 -29q5 -3 44 -24q124 -74 169 -102q5 -3 27.5 -15t35 -21.5t16.5 -19.5q8 -19 2 -49.5t-21 -33.5q-9 -1 -18.5 2.5t-25.5 13.5l-16 10q-36 21 -158 95q-9 6 -27.5 16t-27.5 15q-20 12 -55.5 33t-51.5 30q-3 2 -10.5 6.5t-12 7t-10 7t-9 8.5t-4.5 8
q-3 8 -2.5 29.5t3.5 31.5q5 13 49 50q10 9 29 23.5t26 20.5q150 129 295 247q1 1 8 7.5t11 9t11 6t13.5 2.5t12.5 -6q8 -7 9 -35t-5 -41q-3 -7 -8.5 -13t-18 -15.5t-15.5 -11.5q-10 -8 -25.5 -23t-16.5 -16q-18 -15 -48 -38t-43 -34q-31 -26 -82 -70t-71 -61q-1 -1 -7 -5
t-9 -7.5t-3 -8.5z" />
    <glyph glyph-name="equal" unicode="=" horiz-adv-x="711" 
d="M149 338q-54 -4 -65 4q-12 10 -9.5 36.5t14.5 34.5q9 5 59 8q59 5 183 14t188 14q42 4 63 5q39 2 47 -7t8 -31.5t-9 -31.5q-8 -9 -62 -13q-373 -29 -417 -33zM581 254q33 2 42 -10q7 -11 5.5 -32t-10.5 -30q-10 -9 -62 -13q-312 -22 -411 -31q-56 -4 -65 2
q-12 7 -12.5 32.5t10.5 35.5q8 8 57 12q188 16 189 16l93 6t99 7q11 1 33 2.5t32 2.5z" />
    <glyph glyph-name="greater" unicode="&#x3e;" horiz-adv-x="647" 
d="M125 717q9 0 12.5 1t12.5 -3.5l13 -6.5t13 -7.5t12 -7.5q179 -109 318 -188q40 -22 46 -37q4 -11 4 -32t-5 -32q-3 -7 -9.5 -14t-12.5 -12t-17 -13t-15 -11q-49 -42 -143.5 -121.5t-133.5 -112.5q-10 -8 -29.5 -23.5t-27.5 -21.5l-7.5 -7.5t-9.5 -9t-11 -8.5t-12 -6.5
t-12.5 -2.5t-11.5 3q-11 6 -13 35t5 42q3 8 42 41l264 222q1 1 13.5 9.5t20.5 16.5t8 13q0 10 -38 29q-42 26 -127 76t-128 76q-32 18 -37 31q-5 10 -5 36t6 36q3 5 15 10z" />
    <glyph glyph-name="question" unicode="?" horiz-adv-x="773" 
d="M658 597q14 -64 -31 -124q-6 -10 -14 -20q-24 -26 -71 -53.5t-83.5 -54t-48.5 -59.5q-3 -9 -5.5 -38.5t-9.5 -37.5q-13 -17 -67 -19.5t-67 16.5q-3 4 -4 10.5t-0.5 11.5t1.5 14t1 14q3 39 12 58q4 9 10.5 17.5t11.5 15t15.5 15t15 12.5t17.5 13t16.5 11t19 11.5
t16.5 10.5q49 30 68 47q43 37 50 63q6 22 -2.5 43.5t-23.5 32.5q-31 23 -92.5 23.5t-100.5 -17.5q-50 -20 -81 -66q-13 -19 -19 -23q-19 -10 -75 -8q-54 3 -58 25q-2 15 21 51q37 55 121 92q40 17 86 26q44 9 103 11q75 4 140.5 -13.5t98.5 -55.5q23 -24 29 -55zM327 134
q43 3 74.5 -17t19.5 -59q-7 -26 -46 -42.5t-77 -12.5q-26 3 -48 18t-23 39q0 25 20 43q26 27 80 31z" />
    <glyph glyph-name="at" unicode="@" horiz-adv-x="895" 
d="M579 497q65 29 81 5q3 -5 4 -11t-1 -14t-4.5 -14t-6 -15t-5.5 -13q-8 -22 -22.5 -63.5t-24.5 -68.5q-1 -2 -5 -11t-6.5 -16t-5 -15t-2.5 -14t3 -9q8 -9 42 10q63 36 98 119q30 72 9 131q-25 77 -107 114q-65 31 -137 28q-99 -5 -180.5 -59.5t-123.5 -127.5
q-44 -78 -39 -155q4 -46 34 -99q44 -77 138 -112q61 -20 129 -14.5t120 28.5l11 5.5t11.5 5.5t10.5 3.5t11 0.5q17 -1 30 -16.5t11 -28.5q-2 -23 -73 -49q-49 -18 -95 -26q-108 -19 -211 16q-91 30 -146 94q-65 73 -72 170q-13 170 124 307q83 83 206 119q85 23 161 18
q114 -8 194 -72q44 -36 63 -70q29 -50 29.5 -120.5t-25.5 -123.5q-30 -63 -100 -124q-36 -31 -88 -52t-96 -8q-19 8 -22 8q-9 1 -25 -7t-21 -9q-96 -23 -159.5 29.5t-61.5 146.5q2 75 42 133.5t99 82.5q65 26 129 7q33 -11 75 -44zM379 435q-17 -14 -31 -38t-18 -47
q-9 -51 9.5 -86.5t61.5 -38.5q79 -5 113 83q16 43 14 68q-2 40 -27.5 63.5t-68.5 18.5q-31 -5 -53 -23z" />
    <glyph glyph-name="A" unicode="A" horiz-adv-x="753" 
d="M546 218q-27 0 -54 -1.5t-66.5 -5.5t-56.5 -5q-18 -1 -40.5 -2.5t-50.5 -3.5t-43 -3q-6 -1 -15.5 -1.5t-16 -1.5t-10.5 -2q-8 -4 -26 -44q-32 -68 -46 -95q-19 -35 -27 -40q-8 -4 -54 -9q-41 -2 -44 20q-2 13 18 49q19 36 110 218q89 173 136 260q5 10 20 41t24 47
q1 2 9.5 18t12.5 25q2 4 6 11.5t6.5 11.5t6 9t7.5 7q13 6 41.5 8.5t41.5 -3.5q9 -5 23 -38q9 -20 28 -60.5t28 -59.5q31 -74 109 -244q67 -152 91 -202q14 -33 11 -44q-3 -12 -12.5 -15.5t-28.5 -5.5q-39 -6 -53 0q-8 3 -15.5 13t-11.5 18.5t-10.5 25t-8.5 21.5t-9 19.5
t-10 22.5q-2 5 -5.5 14.5t-6.5 16t-8 10.5zM385 587q-3 -3 -21 -40q-40 -81 -90 -178q-20 -39 -32 -75q5 -5 29 -3q118 8 168 13q6 1 21 1t25 1.5t19 5.5q2 10 -10 36q-36 84 -44 104q-28 70 -42 104q-12 27 -20 31h-3z" />
    <glyph glyph-name="B" unicode="B" horiz-adv-x="700" 
d="M520 410q2 -4 6 -6t9.5 -3t7.5 -2q48 -17 76.5 -58t22.5 -103q-8 -83 -89 -142q-46 -34 -88 -49q-32 -12 -76.5 -19.5t-75 -10.5t-93 -6.5t-84.5 -5.5q-4 0 -22.5 -2t-27 -2.5t-22.5 0t-22 3.5t-12 9q-3 4 -4 11.5t-1 18t0.5 18t2 20.5t1.5 17q4 80 9 165t11.5 190.5
t10.5 168.5q2 67 13 78q7 8 63 13q10 1 35 2.5t37 2.5q30 2 78.5 6t67.5 5q16 2 47 0q47 -2 84.5 -11.5t71 -28.5t49.5 -54t12 -83q-6 -59 -50 -103q-6 -6 -23 -18t-25 -21zM237 423q12 1 35.5 2.5t34.5 2.5q146 12 179 87q13 33 2.5 60.5t-36.5 41.5q-19 11 -47 14.5
t-48.5 3t-57 -3.5t-51.5 -4h-18t-21.5 -0.5t-17 -2.5t-11.5 -5q-6 -7 -6 -46q-1 -14 -2.5 -48.5t-2.5 -53.5q-2 -41 1 -49q7 -2 67 1zM222 104q157 12 207 33q54 21 77 60q13 24 13 54q-1 66 -78 86q-53 14 -92 8q-21 -2 -87.5 -6t-97.5 -10q-5 -9 -7 -54l-6 -117
q0 -5 -2 -17.5t-1.5 -21t3.5 -16.5q16 -2 22.5 -2.5t24 1.5t24.5 2z" />
    <glyph glyph-name="C" unicode="C" horiz-adv-x="761" 
d="M572 610q-35 25 -88 28.5t-101 -9t-86 -34.5q-118 -67 -150 -197q-19 -77 3.5 -146t72.5 -108q50 -38 118 -47q79 -10 146.5 13.5t108.5 67.5q25 27 36 28q16 1 41 -15q23 -14 24 -29q2 -24 -45 -62q-101 -80 -227 -94q-100 -11 -184.5 18t-134.5 83q-71 75 -78 180
q-12 179 119 310q81 81 203 119q50 14 114 15.5t119 -11.5q37 -9 82 -39q50 -33 50 -68q0 -28 -22.5 -49.5t-50.5 -23.5t-52 18q-11 11 -18 52z" />
    <glyph glyph-name="D" unicode="D" horiz-adv-x="779" 
d="M362 727q53 5 125 -11q105 -24 171 -98q72 -81 72 -197q0 -159 -123 -275q-58 -55 -141 -91q-66 -29 -194 -41q-19 -2 -74.5 -7t-86.5 -7q-39 -4 -51 3q-14 9 -9 78q1 13 2.5 44t2.5 45q2 65 8 180q2 44 7 132t7 134q0 7 1 23.5t1.5 25t3 19t6.5 14.5q8 8 62 13
q9 1 210 16zM213 100q41 4 57 5q170 14 263 105q40 39 64 98t20 121q-5 64 -39 111q-35 46 -91 70q-60 26 -171 21q-75 -4 -130 -13q-5 -11 -7 -62q-3 -67 -9.5 -198t-9.5 -194q0 -5 -2 -19.5t-1.5 -25t3.5 -19.5q9 -3 53 0z" />
    <glyph glyph-name="E" unicode="E" horiz-adv-x="625" 
d="M166 422q16 -4 70 0q125 11 142 12q59 3 68 -4q12 -7 14 -33.5t-9 -39.5q-9 -11 -67 -15q-11 -1 -64.5 -5t-86.5 -6q-4 0 -17 -0.5t-22.5 -1t-19.5 -2t-13 -4.5q-5 -5 -8 -52q-1 -17 -3 -53t-3 -58q-2 -42 1 -54q8 -3 16.5 -3.5t20 1.5t15.5 2q131 9 270 20q6 1 21.5 2.5
t25.5 2.5t22.5 1t21.5 -2t14 -6q9 -8 10 -34t-10 -39q-9 -9 -62 -13q-185 -13 -415 -31q-53 -4 -62 5q-4 3 -6 10t-2.5 17t-0.5 17.5t1 20t1 16.5q3 68 12 210t13 217q1 20 5 84q2 77 18 88q7 5 57 10q29 2 183 13q9 1 54 5t69 5q103 5 122 8q29 5 39 -13q7 -16 3.5 -38.5
t-10.5 -29.5q-6 -6 -19 -9t-24 -4t-31 -1.5t-27 -0.5q-36 -2 -68.5 -4.5t-73 -5.5t-71.5 -5q-2 0 -52 -5q-5 0 -14.5 -0.5t-15.5 -0.5t-12.5 -1.5t-8.5 -3.5q-4 -4 -6 -22.5t-2.5 -44.5t-0.5 -27q-6 -73 -2 -95z" />
    <glyph glyph-name="F" unicode="F" horiz-adv-x="575" 
d="M182 608q-4 -8 -6 -46q-7 -100 -5 -143q15 -5 65 0q43 3 134 10q4 0 13 0.5t14 1t11.5 0t11.5 -2t8 -4.5q10 -9 11 -32.5t-6 -34.5q-5 -8 -22.5 -13t-33.5 -6.5t-41 -2t-33 -1.5q-106 -8 -137 -14q-4 -10 -6 -77l-9 -156q-2 -60 -11 -70q-12 -14 -49.5 -15.5t-46.5 13.5
q-5 8 -2 83q17 363 28 510q0 6 1 22t1.5 24.5t2.5 18t6 13.5t12.5 7t22 4.5t23.5 2t26.5 1.5t21.5 1q259 20 337 25q32 2 42 -9q8 -9 7.5 -33.5t-8.5 -34.5q-4 -5 -10 -8t-16.5 -4.5l-17.5 -2.5t-23.5 -2t-22.5 -1q-22 -2 -91.5 -7t-105.5 -8q-80 -5 -96 -9z" />
    <glyph glyph-name="G" unicode="G" horiz-adv-x="768" 
d="M598 150q10 157 9 191q-20 4 -82 -2q-6 0 -20.5 -2t-23 -2.5t-19 0.5t-15.5 6q-12 10 -11 37.5t11 37.5q9 8 60 13q92 8 135 11q53 5 64 -3q6 -4 8.5 -14.5t2.5 -18.5t-1.5 -24t-1.5 -21q-2 -31 -4.5 -88.5t-3.5 -87.5q0 -7 -1 -22.5t-1.5 -23.5t-2.5 -18.5t-5 -16.5
q-7 -16 -50 -36q-90 -44 -196 -62q-95 -16 -180.5 5.5t-141.5 67.5q-32 26 -55 62q-14 20 -20 33q-40 83 -26 197q10 83 65 162q46 67 116 114q70 50 158 70q39 9 104 13q25 3 84 -6q79 -11 134 -49q17 -12 25.5 -19.5t14.5 -23t2 -35.5q-5 -26 -30 -42.5t-53.5 -14
t-44.5 25.5q-4 6 -7 22t-8 22q-16 20 -90 26q-98 7 -182 -34q-120 -59 -164 -181q-19 -51 -16 -111.5t27 -103.5q34 -59 99.5 -90t154.5 -22q54 4 99 21q64 22 83 37z" />
    <glyph glyph-name="H" unicode="H" horiz-adv-x="689" 
d="M532 350q-23 2 -31 2t-32.5 -2t-34.5 -3q-37 -3 -119 -10t-127 -10q-42 -2 -46 -6t-5 -17.5t-1 -33v-24.5q-3 -55 -10 -153q-2 -61 -10 -70q-10 -14 -49.5 -15.5t-49.5 13.5q-5 8 -2 81q4 91 15 263t15 245q3 57 9 68q11 16 51 19q38 2 47 -12q8 -10 3 -65
q-8 -184 -8 -200q24 -2 31.5 -2.5t32 2.5t32.5 3q236 17 293 25q4 8 5.5 18t2.5 26.5t1 21.5q2 50 8 142q2 57 9 65q11 11 51 13q36 4 46 -11q6 -9 3 -83q-4 -91 -15 -260t-15 -245q-2 -68 -11 -77q-11 -11 -46.5 -12t-44.5 8q-12 10 -8 70q1 28 5 82t5 71q2 60 0 73z" />
    <glyph glyph-name="I" unicode="I" horiz-adv-x="676" 
d="M400 624q-3 -21 -8 -123q-1 -14 -8.5 -156t-7.5 -212q7 -4 14.5 -4.5t23 2t17.5 2.5q67 5 119 9q56 6 65 -11q7 -12 3.5 -37.5t-11.5 -32.5q-11 -9 -67 -13q-71 -6 -217 -18t-225 -18q-60 -4 -69 3q-12 11 -11 38.5t11 38.5q8 7 56 11q39 4 61 5q89 6 119 13q5 20 7 60
q2 44 7 135t8 163t3 134q-8 4 -15.5 4.5t-23.5 -2t-17 -2.5q-11 -1 -53.5 -4.5t-64.5 -5.5q-56 -4 -66 12q-7 12 -3 37t12 33q9 7 63 11q470 38 479 39q30 2 39 -8q9 -12 7 -38t-11 -35q-3 -3 -7 -5t-10 -3.5t-10.5 -2t-14 -1t-13.5 -0.5q-20 -1 -62 -5q-84 -4 -119 -13z
" />
    <glyph glyph-name="J" unicode="J" horiz-adv-x="656" 
d="M540 634q-3 -43 -11.5 -167.5t-11.5 -192.5q-4 -74 -18 -109q-20 -47 -50 -76.5t-77 -51.5q-106 -50 -217 -28q-64 12 -102 52q-44 47 -33 85q5 15 44 24q44 12 57 7q10 -4 20 -24t14 -25q16 -16 33 -23q47 -19 111 2q47 15 73 55q10 15 16 33.5t9.5 44.5t4.5 42.5t2 52
t2 48.5q1 20 6.5 107t6.5 131q-55 -1 -278 -21q-5 0 -18 -1.5t-21 -2t-18.5 -0.5t-17.5 2t-11 5q-10 9 -9.5 37t9.5 38q7 8 29 12t59.5 6t39.5 2q133 11 135 11q30 2 124 11.5t148 11.5q34 0 41 -10q7 -11 6 -36t-9 -36q-8 -10 -23.5 -12.5t-31 -1t-33.5 -2.5z" />
    <glyph glyph-name="K" unicode="K" horiz-adv-x="598" 
d="M139 301q-5 -4 -6.5 -10t-0.5 -11.5t0 -12.5q-1 -25 -5 -90t-6 -98q-2 -59 -11 -68q-10 -9 -42 -12t-45 7q-10 10 -6 80q9 213 26 505q3 71 8 79q8 14 43.5 18.5t47.5 -8.5q6 -6 8 -21t1 -29l-2.5 -35t-1.5 -26q-5 -97 -3 -114q7 -1 24 13q48 42 251 217q28 26 41 31
q9 3 61 6q42 4 44 -18q1 -5 -0.5 -10t-6.5 -10l-8.5 -8.5t-11 -9.5t-10.5 -9q-24 -21 -68.5 -58.5t-66.5 -56.5q-43 -37 -137 -114q-41 -34 -42 -41q0 -5 5 -11.5t10.5 -11.5t14 -12t10.5 -9q144 -123 267 -234q3 -2 10 -8t10.5 -9.5t8.5 -9t6.5 -10.5t0.5 -11
q-1 -8 -8.5 -13t-15 -6.5t-23.5 -2.5q-52 -5 -63 -2q-15 3 -43 29q-63 59 -187 171q-6 5 -19.5 16t-19.5 17q-2 2 -10.5 11t-14.5 13.5t-14 6.5z" />
    <glyph glyph-name="L" unicode="L" horiz-adv-x="544" 
d="M153 106q23 -2 27.5 -2.5t27.5 2.5t28 4q97 8 168 14q3 0 12 1t12.5 1.5t11 1t11.5 0t10 -0.5t9.5 -1t7 -3t6.5 -4q10 -11 8 -38.5t-10 -35.5q-4 -5 -12.5 -8t-21.5 -5t-23 -2.5t-26 -1.5t-21 -1q-47 -4 -221 -20q-6 -1 -22 -2.5t-26 -2.5t-23 -1t-21.5 2t-13.5 6
q-10 9 -7 84q4 79 12 259t14 280q0 6 0.5 27.5t2.5 35.5t7 20q10 12 44.5 15t46.5 -10q3 -3 4.5 -9t2 -14.5t0 -15t-1 -18.5t-0.5 -16q-14 -308 -23 -466q-3 -62 0 -75z" />
    <glyph glyph-name="M" unicode="M" horiz-adv-x="871" 
d="M636 529q-4 -2 -6.5 -6t-3.5 -7l-3 -9t-2 -8q-25 -75 -70.5 -218.5t-64.5 -202.5q-1 -4 -4.5 -16.5t-6 -18.5t-6.5 -13.5t-9 -10.5q-9 -6 -42.5 -9t-47.5 2q-11 6 -22 54q-8 35 -23.5 99t-20.5 85q-9 34 -23 97.5t-20 89.5q-9 45 -18 57q-9 -4 -14 -26q-25 -79 -46 -154
q-12 -47 -41 -139t-34 -107q-14 -52 -26 -59q-16 -10 -50 -7t-39 17q-4 3 -1.5 18.5t5 24.5t8.5 25.5t7 21.5q9 29 27 85l27 84t47 148.5t60 188.5q2 6 6.5 20.5t8 24t8.5 19.5t10 14q12 8 45 10.5t46 -4.5q5 -3 10.5 -13t9.5 -25.5t7 -27.5t6.5 -28.5t4.5 -20.5
q45 -202 57 -249q2 -11 6.5 -32.5t6.5 -31.5q8 -40 17 -57q4 2 6.5 6t3.5 7l3 9t2 8q17 54 55.5 172.5t58.5 182.5q6 18 20 65q14 52 24 60q9 7 43.5 11.5t50.5 -3.5q12 -7 28 -77q6 -26 26.5 -116t32.5 -137q10 -44 29 -127.5t29 -126.5q1 -4 6 -20.5t6.5 -24t3.5 -23.5
t-3 -19q-5 -12 -38.5 -18.5t-52.5 2.5q-13 6 -23 54q-64 297 -81 371q-1 6 -3.5 19t-5.5 22.5t-7 17.5z" />
    <glyph glyph-name="N" unicode="N" horiz-adv-x="718" 
d="M152 529q-4 -5 -6 -13t-2.5 -14t-0.5 -17v-16q-5 -77 -11.5 -221.5t-8.5 -177.5q-2 -47 -13 -57t-42 -11.5t-42 8.5q-12 10 -7 76q6 92 14 260t12 244q1 7 1.5 27.5t1.5 33t5 18.5q7 13 49 16q50 5 59 2q5 -2 10.5 -6.5t11.5 -11.5t10.5 -12.5t11.5 -14.5t9 -12
q213 -267 242 -305q12 -16 36.5 -45.5t36.5 -45.5l7 -10.5t9 -11.5t10 -6q5 10 7 62q3 57 10.5 186t10.5 197q2 54 6 60t11.5 9.5t13.5 4.5t18 2t16 2q25 5 36 -11q6 -10 3 -81q-4 -82 -13 -247t-13 -254q-3 -66 -10 -76q-9 -12 -47 -15q-48 -2 -60 2q-9 4 -18 13
t-19.5 24.5t-14.5 20.5q-50 61 -145.5 184t-143.5 182q-16 20 -25 31q-1 1 -6 9t-9.5 12t-10.5 6z" />
    <glyph glyph-name="O" unicode="O" horiz-adv-x="842" 
d="M438 734q104 9 189.5 -30t130.5 -103q43 -61 52 -146q9 -88 -24 -171q-41 -103 -125.5 -170.5t-204.5 -94.5q-100 -21 -180 -4q-81 16 -140 58q-64 47 -93 104q-48 98 -26 214q21 103 80 174q123 150 338 169h3zM285 601q-62 -35 -102 -88q-54 -69 -60 -156
q-5 -67 18.5 -122.5t65.5 -86.5q50 -37 126.5 -46t146.5 15q80 28 136.5 87t76.5 139q13 58 3.5 111t-34.5 92q-30 48 -89.5 74.5t-136.5 21.5q-88 -6 -151 -41z" />
    <glyph glyph-name="P" unicode="P" horiz-adv-x="637" 
d="M165 320q-4 -10 -6 -76q-1 -12 -4 -70t-5 -88q-2 -60 -11 -70q-10 -11 -45.5 -14t-48.5 8q-4 3 -6 10t-2.5 17.5t-0.5 17.5t1 20.5t1 17.5q4 96 15 271t15 255q2 72 11 81q8 9 58 13q44 4 65 5q16 1 65.5 5.5t71.5 5.5q55 4 110.5 -9.5t85.5 -37.5q25 -18 36 -40
q24 -53 13.5 -115t-42.5 -98q-52 -60 -161 -83q-51 -10 -107 -15q-84 -5 -109 -11zM464 515q12 37 2 65q-11 29 -46 42q-13 5 -29 8t-38 3.5t-34.5 0t-39.5 -2.5t-33 -2q-57 -5 -65 -8q-4 -8 -6 -47q-3 -51 -3 -52q-4 -81 0 -103q45 1 72 2.5t69.5 7.5t68.5 15t49.5 27.5
t32.5 43.5z" />
    <glyph glyph-name="Q" unicode="Q" 
d="M613 60q-110 -55 -215 -60q-94 -4 -172 28t-127 88q-33 39 -51.5 94.5t-16.5 114.5q5 113 70 208q120 175 359 195q27 2 52 0q95 -6 169 -49q112 -64 141 -187q14 -61 7.5 -122.5t-29.5 -110.5q-33 -69 -77 -113l-19 -19q0 -3 18 -24q5 -7 17.5 -22t19.5 -26
q13 -17 10 -32q-4 -17 -44 -20q-53 -3 -58 -1q-14 4 -30 28t-24 30zM714 470q-22 79 -89.5 125t-165.5 40q-131 -8 -217 -87q-91 -87 -99 -200q-6 -92 33.5 -152t109.5 -87q68 -24 144 -14.5t131 42.5q-82 101 -132 157q-2 2 -8.5 9t-10.5 12.5t-9 13t-7.5 14.5t-1.5 13
q2 19 44 24q48 7 62 2q6 -2 13 -9.5t14.5 -18t11.5 -14.5q70 -87 73 -90q30 -38 37 -43q43 53 64.5 122t2.5 141z" />
    <glyph glyph-name="R" unicode="R" horiz-adv-x="619" 
d="M381 353q2 -11 21 -39q10 -15 34.5 -49t38.5 -55q3 -5 71 -105q21 -27 17 -42q-5 -17 -44 -20q-50 -5 -59 -2q-10 4 -31 33q-13 21 -100 151q-4 6 -12 19t-13 20q-4 6 -12 18.5t-13 20t-13 17t-15 16.5q-22 0 -54 -4h-17t-21 -1t-12 -5t-6 -17t-2 -33.5t-1 -26.5
q-1 -27 -3.5 -79.5t-4.5 -80.5q-2 -60 -13 -70q-7 -7 -40 -12q-35 -3 -46 4q-12 7 -12 32t3 46q9 213 27 534q0 6 0.5 18t1 19.5t2 17t3.5 16t5 10.5q6 7 21.5 11t30 5t36 2t28.5 2q26 2 73.5 6t58.5 5q116 9 190 -29.5t77 -129.5q1 -86 -54 -145q-41 -43 -89 -60
q-1 0 -22 -5.5t-30 -12.5zM220 427q46 3 77.5 7.5t67.5 14.5t58.5 29.5t31.5 48.5q7 20 4 43q-4 24 -19.5 39.5t-39 21.5t-52.5 8.5t-60 -0.5q-62 -3 -125 -11q-5 -17 -10 -99t-2 -102q14 -5 69 0z" />
    <glyph glyph-name="S" unicode="S" horiz-adv-x="600" 
d="M412 626q-68 27 -145.5 5t-99.5 -79q-13 -30 -2 -61q6 -15 20.5 -26.5t25.5 -16.5t34 -13q24 -8 100.5 -24t108.5 -32q47 -24 70.5 -60.5t17.5 -99.5q-1 -21 -13 -48q-26 -64 -96.5 -110t-157 -56t-175.5 21q-84 33 -84 70q0 4 0.5 7.5t2.5 7t3.5 5.5t5.5 5t5.5 4t6.5 4
t6 4q3 2 13.5 9.5t17.5 10.5t15 3q5 0 9.5 -2t7.5 -4.5t8.5 -7t8.5 -7.5q22 -17 33 -23q57 -26 126 -14t108 50q44 44 32 93q-6 23 -28.5 39t-45.5 23t-58 14q-7 1 -11 2q-37 8 -51.5 11t-47.5 12t-47.5 17t-37 23t-32 31.5t-16.5 41.5t-5 55q5 85 68 142q34 31 88 53
q84 35 185 28q80 -6 140 -51q37 -27 37 -56t-24.5 -50.5t-54 -22.5t-52.5 19q-5 5 -8 11.5t-4.5 11.5t-4 15.5t-3.5 15.5z" />
    <glyph glyph-name="T" unicode="T" horiz-adv-x="628" 
d="M366 616q-4 -12 -6 -75q-23 -420 -25 -458q-2 -59 -11 -69q-10 -10 -41.5 -12.5t-44.5 8.5q-9 8 -7 69q3 45 7 125t5 101q13 259 13 299q-6 3 -14 3.5t-13 0t-14.5 -2t-13.5 -1.5q-97 -8 -121 -10q-53 -4 -63 12q-7 13 -3.5 37.5t11.5 32.5q8 7 63 11q447 37 478 39
q30 2 39 -8q10 -13 8.5 -38t-11.5 -35q-7 -8 -55 -12q-10 -1 -30.5 -2t-31.5 -2q-90 -6 -119 -13z" />
    <glyph glyph-name="U" unicode="U" horiz-adv-x="646" 
d="M584 726q25 0 32 -11q8 -13 3 -75q-7 -144 -11 -232q-4 -100 -14 -160.5t-41 -107.5q-64 -99 -195 -129q-166 -37 -265 36q-44 34 -65 88q-7 19 -11 43t-4.5 55.5t0 52.5t2.5 62.5t3 56.5q2 37 6 109t6 100q2 51 11 62q9 10 42 14t47 -8q13 -12 5 -110q-5 -116 -13 -231
q-5 -95 -3 -117q4 -46 29 -78t64 -45q54 -16 113 -3.5t98 43.5q66 54 73 165q4 56 8 155.5t5 121.5q0 5 2 30t3 39q2 53 10 61q11 13 60 13z" />
    <glyph glyph-name="V" unicode="V" horiz-adv-x="693" 
d="M320 170q9 4 21 31q18 40 93 203t117 252q2 5 7.5 19t9 20.5t9 14.5t11.5 11q16 8 55 8q22 0 29 -11.5t3.5 -24t-12.5 -32.5q-276 -593 -285 -611q-15 -34 -24 -39q-12 -7 -40.5 -9t-40.5 4q-5 2 -10 8t-9 15.5t-7 17t-7 19.5t-6 16q-21 54 -74 193.5t-84 217.5
q-9 23 -24.5 67.5t-20.5 57.5q-1 2 -4.5 11t-4 12t-1.5 12t2 11q6 15 40 18q39 5 52 -2q4 -2 8 -6.5t7.5 -11.5t5.5 -12t5.5 -15t4.5 -13q11 -30 36 -96t37 -99q11 -30 35.5 -94t37.5 -101q1 -2 5 -15t7 -19q7 -22 16 -28z" />
    <glyph glyph-name="W" unicode="W" horiz-adv-x="898" 
d="M437 494q-5 -1 -8 -6t-4.5 -12t-2.5 -9q-13 -39 -39 -115t-34 -100q-7 -21 -27.5 -85.5t-32.5 -101.5q-14 -46 -26 -55t-45 -12.5t-49 5.5q-4 3 -7.5 9t-6 15t-4.5 16t-4.5 19t-3.5 16q-10 46 -29.5 125.5t-28.5 118.5q-11 47 -33.5 134.5t-27.5 107.5q-1 5 -5 20.5
t-5.5 23t-3 21.5t2.5 16q7 14 46 16q42 4 52 -4q7 -7 17 -54q32 -135 80 -349q1 -4 2.5 -14t3 -15t4 -12.5t6.5 -12.5q5 1 8 5.5t5 13t2 9.5q8 23 33 98.5t40 118.5q12 33 35 103.5t27 83.5q16 47 29 54q12 6 41.5 8t44.5 -3q15 -8 24 -51q68 -275 87 -355q1 -4 3 -18t5 -23
t8 -16q9 4 14 27q21 67 69 218q8 26 29.5 91.5t30.5 95.5q1 4 4 14t4.5 14.5t4.5 10.5t6 10t7 6q13 8 52 10q31 2 39 -18q4 -9 0 -25t-13.5 -39t-9.5 -24q-16 -44 -42.5 -126t-41.5 -127q-10 -27 -18.5 -54.5t-19.5 -61t-18 -55.5q-4 -13 -14 -40t-15 -43q-2 -5 -5.5 -17
t-6 -19.5t-6 -16.5t-8.5 -14.5t-10 -8.5q-11 -5 -41.5 -6.5t-42.5 3.5q-13 7 -23 52q-5 20 -21 81.5t-23 93.5q-5 27 -12 57t-16 65.5t-14 56.5q-12 47 -18 55z" />
    <glyph glyph-name="X" unicode="X" horiz-adv-x="684" 
d="M343 302q-10 -5 -32 -34q-28 -35 -85.5 -111t-88.5 -115q-3 -3 -8 -10t-8 -10.5t-8 -7.5t-9 -6q-7 -3 -56 -6q-37 -2 -41 17q-3 14 28 51q6 8 17.5 23t16.5 21q21 28 43 56t49 62t44 56q2 2 34 43q3 4 12 13.5t15 17t6 13.5q0 8 -25 39q-31 39 -88 109t-79 98
q-23 27 -21 40q3 18 45 23q5 0 15.5 1.5t16 2t14 -0.5t15.5 -3q6 -2 11.5 -6t11.5 -10.5t9.5 -11t9.5 -13t8 -11.5q53 -71 112 -145q1 -1 6 -9t9.5 -12.5t8.5 -4.5q5 0 10.5 5t11 14t8.5 12q78 96 156 195q15 20 28 27t43 9q53 4 57 -15q1 -6 -1 -13t-5 -11t-9.5 -12
t-8.5 -11q-93 -116 -158 -195q-4 -5 -14.5 -19t-16.5 -21q-2 -2 -10.5 -11t-13.5 -16.5t-5 -13.5q0 -11 28 -42q77 -95 181 -231q1 -2 6 -7.5t6 -7l5 -7.5t4 -8t2 -8t-1 -9q-5 -16 -44 -20q-54 -3 -59 -1q-9 3 -29 29q-21 28 -64 83.5t-63 82.5q-3 4 -14 20t-19.5 25.5
t-18.5 17.5z" />
    <glyph glyph-name="Y" unicode="Y" horiz-adv-x="680" 
d="M620 720q21 2 31 -0.5t13 -15.5q4 -16 -28 -57q-29 -38 -185 -248q-8 -11 -27.5 -36.5t-29.5 -38.5q-14 -17 -16 -26q-3 -9 -4 -20.5t-1 -29v-23.5q-7 -119 -8 -146q-2 -57 -10 -67q-10 -12 -45 -14t-46 11q-8 9 -5 66q1 28 4.5 86.5t5.5 91.5q2 29 1 35q-1 7 -5.5 14.5
t-13 17.5t-11.5 15q-75 105 -195 270q-1 2 -7 9.5t-8 10.5t-5.5 9t-4.5 10.5t0 9.5l2 6t2.5 5t3 3.5t4.5 2.5l4.5 1.5t6 1.5t6 1t7 1t7.5 1q5 0 20 2t20 1.5t18 -2.5q9 -3 18.5 -14t22.5 -31t13 -21q20 -29 52 -74.5t47 -67.5q14 -20 24 -35q23 -32 28 -33q7 -1 34 36
q34 47 91.5 129t78.5 111q23 31 33 36q14 6 57 6z" />
    <glyph glyph-name="Z" unicode="Z" horiz-adv-x="696" 
d="M197 108q8 -5 48 -2q22 2 115 9.5t147 11.5q4 0 19 2t24 3t21.5 1.5t21 -1t13.5 -5.5q10 -8 10 -36.5t-10 -38.5q-9 -9 -65 -13q-14 -1 -38 -3.5t-32 -2.5q-85 -6 -356 -28q-56 -4 -66 4q-8 6 -10 28.5t3 37.5q1 3 26 38q15 19 46.5 55.5t38.5 44.5q155 188 222 273
q14 18 42.5 51t42.5 50q21 25 24 37q-6 5 -13.5 5.5t-19 -1.5t-14.5 -2q-102 -7 -252 -19q-4 0 -18.5 -2t-23 -3t-21 -1.5t-21 1t-13.5 5.5q-11 7 -12 35t10 39q7 8 26.5 11.5t54.5 5t39 1.5q52 4 185.5 13.5t199.5 15.5q37 3 46 -11q12 -19 0 -59q-3 -10 -11.5 -21.5
t-25 -29.5t-17.5 -20q-45 -55 -138 -168t-141 -172q-24 -29 -83 -102q-22 -27 -24 -37z" />
    <glyph glyph-name="bracketleft" unicode="[" horiz-adv-x="361" 
d="M169 90q13 -7 43.5 -3.5t39.5 -3.5q10 -6 12 -24.5t-8 -30.5q-3 -4 -10 -6.5t-17 -4t-18.5 -2t-21 -1t-18.5 -0.5q-8 0 -27 -2.5t-30 -3t-23 2t-17 9.5q-8 10 -3 82q6 90 14 262.5t13 262.5q1 8 1.5 27t1.5 28.5t4.5 20t10.5 14.5q14 8 68 8q75 5 76 5q25 0 34 -13
q7 -10 4 -26t-13 -24q-5 -4 -43 -8q-38 -3 -42 -8q-3 -4 -7 -69q-17 -302 -24 -492z" />
    <glyph glyph-name="backslash" unicode="\" horiz-adv-x="516" 
d="M130 720q17 1 26 -7.5t18 -28.5q7 -17 25 -63.5t26 -65.5q4 -8 17.5 -38.5t19.5 -45.5q13 -31 49 -120t56 -137q32 -71 37 -84q3 -6 8 -21t8 -22q13 -25 11.5 -41.5t-27.5 -27.5q-26 -13 -40 -10q-5 1 -10.5 6.5t-11 15.5t-9 18t-8 20t-6.5 16q-7 16 -17.5 45t-16.5 42
q-4 8 -11.5 24.5t-14 31.5t-11.5 28q-13 29 -36.5 87t-34.5 84q-7 16 -18 45.5t-16 41.5q-6 15 -25.5 59t-29.5 68q-14 36 -11 49q6 25 53 31z" />
    <glyph glyph-name="bracketright" unicode="]" horiz-adv-x="405" 
d="M208 643q-14 5 -47.5 2t-38.5 6q-8 7 -8 26.5t10 28.5q8 7 69 11q75 5 76 5q21 3 30 -7.5t9 -28.5t-1 -41q-1 -9 -1 -13q-4 -74 -12.5 -253.5t-14.5 -281.5q-5 -70 -13 -79q-5 -5 -16.5 -7.5t-21.5 -3.5t-26.5 -2t-21.5 -1q-3 0 -19.5 -1t-27.5 -2q-32 -3 -41 3
q-10 6 -13 22t4 29q3 4 6 6.5t8.5 4t8 2t11 1.5t10.5 1q45 3 50 8q6 6 6 69q3 53 8.5 155.5t10 187t6.5 153.5z" />
    <glyph glyph-name="asciicircum" unicode="^" horiz-adv-x="684" 
d="M356 623q-6 -2 -11 -6t-7.5 -7t-7 -10t-5.5 -8q-26 -32 -72.5 -91.5t-62.5 -79.5q-4 -5 -16 -22t-21.5 -28t-19.5 -15q-19 -10 -44 -6.5t-28 17.5q-1 5 0 10.5t4.5 11.5t6.5 10t8.5 10.5t6.5 8.5q80 102 166 214q3 4 15.5 19t18.5 24l10.5 14t13.5 16.5t10 9.5
q12 8 31.5 10t32.5 -2q8 -2 18 -12.5t16.5 -20t16 -24.5t12.5 -19q20 -27 58 -78.5t59 -80.5q6 -8 14.5 -22t13.5 -21q1 -1 7 -9t8.5 -12t5 -11.5t0.5 -14.5q-3 -13 -28.5 -18t-42.5 2q-5 2 -10.5 6t-11.5 11t-10 12.5t-10 14.5t-9 13q-22 30 -62 86l-50 70q-12 18 -24 28z
" />
    <glyph glyph-name="underscore" unicode="_" horiz-adv-x="632" 
d="M549 109q35 3 44 -8q7 -8 5.5 -28.5t-10.5 -28.5q-7 -6 -62 -10q-45 -3 -183 -13.5t-216 -16.5q-4 0 -13.5 -1.5t-15.5 -2t-13.5 -0.5t-13 1t-9.5 3q-11 6 -13 26.5t5 29.5q4 6 13.5 10t24 5.5t26 2.5t29 1.5t23.5 0.5q47 3 128 9.5t122 9.5q43 4 129 10z" />
    <glyph glyph-name="grave" unicode="`" horiz-adv-x="331" 
d="M153 724q25 -1 47 -30q3 -4 20.5 -27.5t28.5 -35.5q1 -1 3.5 -4.5t3.5 -5l3 -4.5t3 -5t2 -4.5t1.5 -4.5t0.5 -5t-1 -5.5t-2 -5.5q-4 -9 -24 -13.5t-37 -1.5q-13 3 -38 26q-31 29 -67 60q-25 22 -24 39q2 30 80 27z" />
    <glyph glyph-name="a" unicode="a" horiz-adv-x="659" 
d="M319 638q33 2 44 -2q7 -3 14 -12.5t11 -17t11 -22.5t8 -18q7 -14 47.5 -98t61.5 -131q19 -42 56.5 -118.5t54.5 -111.5q2 -5 9 -19l11.5 -23t7.5 -20t1 -18q-1 -3 -2.5 -6t-3 -4.5t-5 -3.5t-5 -2.5t-6 -1.5t-6 -1.5t-6 -1t-5.5 -0.5q-41 -6 -57 0q-9 3 -17 15t-17 35.5
t-10 24.5t-8 16t-11 25q-1 3 -3.5 9.5t-4.5 11.5t-5.5 9.5t-7.5 6.5q-6 2 -44 -2q-47 -4 -134 -10t-130 -9q-37 -2 -42 -5q-5 -2 -9 -7t-8 -12.5t-5 -9.5q-2 -5 -7.5 -16.5t-8.5 -16.5q-26 -51 -39 -58q-10 -5 -52 -7q-36 -2 -42 13q-6 14 11 46q125 223 291 532
q14 24 24 31.5t38 9.5zM277 434q-13 -25 -28 -53t-32.5 -61.5t-27.5 -52.5q-16 -31 -16 -36q4 -4 8 -5t11.5 0t9.5 1q23 2 65.5 5t76.5 5.5t62 4.5q2 0 7.5 0.5t8.5 0.5t7 2t6 5q1 4 -0.5 8.5t-3 7.5t-4.5 7.5t-4 7.5q-10 27 -13 34q-10 24 -29.5 66.5t-28.5 62.5
q-2 4 -6.5 16.5t-8 20.5t-9 16t-10.5 9q-9 -11 -41 -72z" />
    <glyph glyph-name="b" unicode="b" horiz-adv-x="714" 
d="M542 354q9 -6 25.5 -11t21.5 -7q84 -40 75 -130q-3 -29 -20 -57q-29 -50 -102 -87q-38 -19 -93 -31t-88.5 -15.5t-120 -8t-109.5 -6.5q-24 -4 -48 -3t-31 11q-7 9 -2 73q22 332 31 451q0 5 1 17t1.5 18.5t2 16t4 15t6.5 8.5q4 4 12 6t15 2.5t19 0.5t19 1q13 1 37 2.5
t31 1.5q27 2 76.5 5.5t68.5 4.5q15 2 50 0q141 -7 189 -62q24 -26 26 -69t-19 -79q-8 -14 -33 -36q-4 -4 -20.5 -13.5t-24.5 -18.5zM257 365q131 8 176 23q9 3 17 7q32 14 53.5 42.5t7.5 61.5q-6 14 -17 23.5t-29 15t-33 8.5t-40 3t-39 -0.5t-42.5 -2.5t-37.5 -2
q-53 -2 -72 -8q-3 -10 -8 -84q0 -10 -2 -29.5t-2.5 -29t1.5 -28.5q12 -2 67 0zM221 87q143 11 158 13q121 20 151 75q10 17 10 37q0 30 -17.5 49.5t-45.5 25.5t-62.5 8.5t-66.5 -0.5q-29 -1 -83 -5q-66 -2 -82 -8q-4 -18 -5.5 -54.5t-2.5 -42.5q-1 -9 -3 -34.5t-2 -33
t2 -30.5q7 -2 49 0z" />
    <glyph glyph-name="c" unicode="c" horiz-adv-x="759" 
d="M463 638q125 3 206 -52q37 -25 38 -49q1 -30 -28.5 -50t-64.5 -14.5t-45 37.5q-1 2 -2.5 11.5t-4.5 12.5q-8 9 -46 18q-74 17 -166 -8q-101 -31 -156 -95q-43 -49 -57 -102q-17 -65 6 -124.5t71 -92.5q65 -44 171 -44q122 0 203 72q1 1 8 8.5t13 11.5t15 4
q15 2 39.5 -11.5t25.5 -25.5q2 -17 -28 -42q-46 -42 -136 -72q-123 -41 -245 -20q-119 21 -187 92q-82 83 -73 203q3 33 16 72q39 107 158 184q118 73 269 76z" />
    <glyph glyph-name="d" unicode="d" horiz-adv-x="738" 
d="M341 629q68 6 146 -15q139 -35 194 -132q38 -67 26 -156q-10 -74 -54 -134q-79 -106 -223 -153q-17 -5 -35 -9.5t-42.5 -8l-38.5 -5.5t-46.5 -4.5t-41.5 -3.5t-49.5 -3.5t-45.5 -2.5q-7 0 -20.5 -2t-23.5 -2.5t-21 -0.5t-19 2.5t-12 7.5q-7 8 -4 72q4 52 5 74
q2 26 10.5 163t12.5 215q2 62 10 70q3 4 8 6.5t11.5 3.5t12 1.5t15.5 1t15 0.5zM407 121q55 20 98 55q51 40 72 83q19 41 20.5 88t-17.5 90q-11 22 -36 45q-34 33 -102 52q-11 3 -25 5.5t-24.5 4t-28.5 2t-26 0.5t-29.5 -1t-26.5 -1t-29 -1.5t-26 -1.5q-47 -2 -62 -8
q-3 -15 -8 -111q-2 -33 -6 -90t-7 -104t-5 -88q-2 -43 1 -55q188 6 267 36z" />
    <glyph glyph-name="e" unicode="e" horiz-adv-x="619" 
d="M156 364q9 -4 19 -4.5t28.5 2t22.5 2.5q29 1 82 4.5t68 4.5q56 4 66 -8q7 -8 8.5 -26.5t-4.5 -28.5q-2 -3 -5 -5.5t-6 -4t-8 -2.5t-8 -1.5t-9.5 -1t-10 -0.5t-10.5 -0.5t-10 -0.5q-182 -12 -228 -18q-4 -13 -5 -27.5t-1.5 -36t-1.5 -29.5q-6 -88 -5 -93q7 -4 15 -4.5
t19 1t16 1.5q77 4 277 17q6 0 25.5 2.5t32.5 3.5t27 -1t19 -8q8 -9 7 -30.5t-8 -30.5q-8 -9 -64 -13q-43 -3 -163 -10.5t-188 -12.5q-8 0 -32.5 -1.5t-37.5 -2.5q-52 -4 -61 11q-4 6 -4 18t2 30.5t2 23.5q20 293 28 436q3 59 8 68q2 3 5.5 5.5t8.5 4.5t10.5 3.5t13.5 2.5
t14 1.5t15.5 1t15.5 1t16 1t15 0.5q35 2 121.5 8.5t130.5 8.5q123 5 127 6q32 4 41 -11q5 -9 4 -27.5t-6 -26.5q-5 -7 -16.5 -11t-23 -4.5t-30 -1t-27.5 -1.5q-90 -7 -274 -16q-46 -4 -50 -7q-3 -3 -5.5 -14t-3 -22t-1 -25.5t-0.5 -17.5q-4 -69 -3 -83z" />
    <glyph glyph-name="f" unicode="f" horiz-adv-x="571" 
d="M147 367q10 -3 63 0q25 2 132 9q5 0 16 1t17.5 1.5t14 -1t12.5 -5.5q12 -9 12.5 -32t-8.5 -31q-3 -3 -7.5 -5.5t-11.5 -3.5t-12.5 -1.5t-15 -1t-15.5 -0.5q-62 -4 -137 -9q-5 -1 -21 -1t-28 -1.5t-16 -5.5t-5 -13t-1.5 -30t-0.5 -23q-1 -16 -8 -135q-2 -53 -10 -62
q-7 -9 -47 -13q-39 -2 -49 9q-3 4 -4.5 13.5t-1 17.5t1.5 21.5t1 17.5q4 53 12.5 206.5t15.5 240.5q0 6 1 19t1.5 21t2.5 16.5t5 12.5t11.5 7t21.5 4.5t23 2t26.5 1.5t21.5 1q20 1 57.5 4t54.5 4q45 3 228 13q37 2 46 -11q5 -9 3.5 -28t-7.5 -26q-3 -5 -10 -8t-18 -5
t-18.5 -2.5l-22.5 -1.5t-19 -1q-46 -3 -127.5 -8.5t-121.5 -7.5q-44 -3 -47 -5q-5 -4 -10 -80q-2 -71 -1 -85z" />
    <glyph glyph-name="g" unicode="g" horiz-adv-x="758" 
d="M577 136q10 124 8 164q-17 4 -83 -2q-4 0 -16 -1.5t-19 -2t-17 -0.5t-17 2.5t-11 6.5q-7 8 -7 28.5t7 30.5q10 12 62 14q47 4 140 10q53 5 63 -5q4 -4 6.5 -10t2.5 -14.5t-0.5 -14.5t-2 -16t-1.5 -13q-2 -29 -4 -75.5t-4 -75.5q-2 -61 -8 -70q-9 -15 -75 -41
q-28 -11 -88 -26q-112 -29 -205 -21q-103 8 -178 51.5t-108 120.5q-20 43 -20.5 98.5t15.5 97.5q25 71 93 136q52 52 141 88q40 17 88 28q31 7 108 13q16 2 39 0q78 -4 133 -26q86 -34 91 -68q5 -32 -21 -52.5t-60.5 -19.5t-50.5 24q-3 5 -5 18t-6 18q-13 16 -81 23
q-70 8 -137 -10t-112 -47q-42 -27 -76.5 -71t-44.5 -93q-12 -66 8.5 -119t66.5 -85q74 -52 197 -46q56 5 102 18q56 16 87 35z" />
    <glyph glyph-name="h" unicode="h" horiz-adv-x="696" 
d="M535 302q-20 4 -98 -1q-33 -2 -116.5 -7.5t-130.5 -9.5q-43 -3 -46 -6q-4 -4 -5 -14.5t-1 -27t-1 -23.5q-1 -26 -4.5 -72t-4.5 -62q-4 -53 -10 -60q-10 -11 -49 -13.5t-50 11.5q-4 6 -2 70q4 73 14.5 219t14.5 221q4 59 12 67q11 11 48 12.5t48 -11.5q6 -7 3 -57
q-9 -135 -8 -174q54 -1 195 10q22 2 62 4t72 4.5t60 6.5q6 12 8 58q6 84 8 124q2 47 10 55q6 7 49 12q40 2 49 -12q3 -5 3.5 -16.5t-1.5 -30.5t-2 -24q-4 -74 -14 -218t-14 -219q-2 -58 -10 -66q-11 -12 -49 -13.5t-47 9.5q-7 9 -5 62q1 20 4.5 60.5t5.5 72.5t2 59z" />
    <glyph glyph-name="i" unicode="i" horiz-adv-x="222" 
d="M135 633q31 3 39 -8q3 -4 4.5 -13.5t1 -18.5t-2 -23t-1.5 -20q-4 -75 -12.5 -229t-12.5 -238q-2 -61 -11 -70q-11 -12 -47.5 -13t-45.5 13q-6 11 -1 76q4 84 13.5 241.5t12.5 221.5q2 60 11 70q8 9 52 11z" />
    <glyph glyph-name="j" unicode="j" horiz-adv-x="612" 
d="M491 627q48 4 57 -8q6 -8 3 -67q-4 -68 -13 -193t-11 -147q-4 -67 -36 -109q-58 -81 -190 -101q-161 -24 -236 41q-16 13 -28.5 33.5t-6.5 39.5q2 7 8 11.5t9.5 5.5t14 2.5t12.5 1.5q43 10 54 7q14 -4 25 -23t16 -23q20 -17 62 -21t76 6q35 9 60 31q22 19 35 52
q6 18 13 111q3 49 9 144t10 146q4 44 10 50q3 3 6.5 5t8.5 3t8.5 1t11.5 0.5t12 0.5z" />
    <glyph glyph-name="k" unicode="k" horiz-adv-x="591" 
d="M138 269q-4 -3 -5 -7.5t-1 -11.5v-9q-5 -59 -10 -161q-3 -54 -8 -60q-7 -11 -41 -15.5t-49 5.5q-10 8 -8 68q3 45 11.5 201t14.5 242q1 6 1.5 24t2 29.5t4.5 16.5q9 13 46 16t47 -8q5 -5 6.5 -18.5t1 -25.5t-2 -30.5t-1.5 -21.5q-7 -79 -4 -99q8 0 15 3.5t16.5 12.5
t11.5 10q16 12 55 41t60 45q22 17 61.5 46t54.5 40q28 24 39 28q8 3 18 4t24 1.5t20 1.5q44 2 47 -15q1 -5 -0.5 -10t-7 -9.5t-9 -7.5t-11.5 -8t-10 -7q-82 -63 -271 -202q-4 -3 -16.5 -11t-19.5 -14.5t-7 -10.5q0 -5 7.5 -11.5t21 -15t14.5 -9.5q9 -7 25.5 -19.5
t18.5 -14.5q23 -18 175 -137q43 -30 46 -32q2 -1 8 -6t8.5 -7.5t7.5 -7t7 -7.5t3.5 -7t1.5 -8q-2 -18 -46 -21q-52 -5 -65 -2q-18 5 -42 27q-3 3 -227 177q-2 2 -10.5 10t-14.5 12t-14 6z" />
    <glyph glyph-name="l" unicode="l" horiz-adv-x="516" 
d="M134 92q18 -4 86 1q57 5 174 13q23 4 46.5 2.5t30.5 -12.5q5 -8 4 -27t-8 -28q-3 -5 -11.5 -8.5t-21.5 -5.5t-22.5 -2.5t-26.5 -1.5t-22 -1q-41 -4 -115.5 -9t-115.5 -8q-7 0 -27 -2.5t-32.5 -3.5t-26 1.5t-18.5 9.5t-2 77q3 54 7.5 145.5t9 167.5t9.5 146q1 6 1.5 24.5
t2 30t4.5 16.5q9 12 45 15.5t48 -8.5q7 -8 5 -64q-2 -38 -12.5 -208.5t-11.5 -259.5z" />
    <glyph glyph-name="m" unicode="m" horiz-adv-x="882" 
d="M824 57q-7 -16 -46 -20.5t-52 5.5q-9 6 -19 47q-41 161 -80 320q-9 38 -16 48q-8 -2 -15 -24q-132 -361 -135 -368q-16 -43 -28 -49q-10 -5 -42.5 -7.5t-45.5 2.5q-6 3 -11 11t-9.5 22t-6.5 22.5t-6 26t-4 18.5q-11 40 -34.5 129.5t-37.5 138.5q-9 38 -18 49
q-6 -5 -10 -12t-8.5 -21.5t-4.5 -15.5q-104 -300 -110 -319q-13 -41 -23 -49q-14 -11 -51 -9t-43 16q-4 3 -1.5 16.5t5 21t8 21.5t7.5 19q15 44 45 123.5t36 96.5q29 77 82 221q20 58 34 65q12 7 46.5 8.5t46.5 -6.5q4 -3 8.5 -12t8 -23t6 -25t5.5 -25.5t4 -17.5
q56 -207 57 -211q14 -54 22 -80q6 -21 9 -23q4 1 6.5 4t3.5 5.5t3 8.5t2 7q20 56 31 84q63 168 102 282q17 45 27 50q10 7 45.5 9.5t50.5 -5.5q5 -3 8.5 -12t6 -17t5.5 -21.5t4 -18.5q23 -86 66 -245t50 -186q2 -6 7 -22.5t7 -28.5t2 -24z" />
    <glyph glyph-name="n" unicode="n" horiz-adv-x="703" 
d="M140 458q-6 -9 -8 -54q-4 -52 -19 -341q-4 -43 -10 -50q-10 -11 -45.5 -12.5t-45.5 8.5q-8 9 -3 69q4 68 12 213.5t14 228.5q2 55 13 65q8 7 48 9q44 4 52 2q5 -1 11 -5t12.5 -10t10.5 -10.5t11 -13t9 -10.5q34 -37 291 -320q4 -5 12 -13t12 -13q2 -2 6 -6.5t6.5 -7
t7 -5.5t8.5 -4q4 7 5 15.5t1 21v17.5q1 12 21 336q4 46 9 51q11 14 60 14q31 1 35.5 -23.5t-1.5 -59.5q-16 -293 -25 -433q-3 -59 -9 -67q-9 -9 -50 -13t-56 2q-9 3 -17.5 10t-21 21t-15.5 17q-27 28 -75 83.5t-69 77.5l-72 80t-97 107q-1 1 -7 8t-10.5 10.5t-10.5 4.5z" />
    <glyph glyph-name="o" unicode="o" horiz-adv-x="824" 
d="M421 642q107 9 196 -27t134 -101q50 -72 46 -156q-3 -46 -17 -85q-40 -116 -173 -195q-89 -51 -202 -64q-124 -16 -232 27q-105 41 -146 120q-21 41 -27.5 91t5.5 104q22 85 90 151q77 79 196 114q48 14 130 21zM238 509q-74 -44 -107 -114q-23 -48 -23 -103t23 -95
q37 -69 137 -95.5t192 2.5q130 40 187 132q39 62 39 125q0 66 -39 117q-70 95 -237 83q-99 -7 -172 -52z" />
    <glyph glyph-name="p" unicode="p" horiz-adv-x="580" 
d="M312 630q55 5 108.5 -7.5t84.5 -36.5q59 -44 59 -130q0 -93 -53 -149t-139 -78q-53 -14 -175 -23q-53 -3 -57 -8q-3 -3 -5 -49q-2 -36 -3 -50q-1 -8 -1.5 -25t-1.5 -27t-4.5 -21t-9.5 -16q-10 -9 -43 -11t-44 7q-13 11 -8 70q4 115 22 460q5 58 13 67q9 8 59 13
q115 7 198 14zM437 398q10 26 6.5 55t-17.5 44q-18 19 -56 26t-62.5 6.5t-75.5 -4.5q-6 0 -24 -0.5t-30 -2t-22 -6.5q-4 -14 -5.5 -30.5t-1.5 -40.5t-1 -34l-3 -54q-2 -44 1 -53q252 0 291 94z" />
    <glyph glyph-name="q" unicode="q" 
d="M704 111q7 -11 36 -42q1 -1 7 -6.5t9 -9t7 -9.5t5 -12t0 -12q-5 -14 -46 -18q-49 -3 -58 0q-15 5 -29.5 25.5t-22.5 25.5q-159 -72 -317 -46q-107 18 -177.5 76t-84.5 155q-11 76 16.5 141t74.5 112q34 34 64 54q70 48 162 71q48 12 107 17q28 1 56 0q83 -6 149 -34
q74 -33 121.5 -92.5t47.5 -145.5q0 -44 -16 -94q-29 -85 -111 -156zM694 251q26 52 26 97q2 35 -9 65q-23 67 -89 104.5t-153 35.5q-131 -3 -221 -71q-99 -76 -106 -181q-2 -18 0 -40q3 -42 26 -80q28 -46 85.5 -72.5t129.5 -28.5q86 -1 175 38q0 7 -18 22
q-14 14 -51.5 53.5t-60.5 62.5q-1 1 -8 7.5t-10.5 10.5t-9 11t-8 13t-1.5 11q1 8 8 13t13 6t23 3q49 4 61 1q11 -3 39 -36q82 -87 107 -117q32 26 52 72z" />
    <glyph glyph-name="r" unicode="r" horiz-adv-x="602" 
d="M378 233q17 -29 50 -79.5t44 -68.5q1 -2 8 -11.5t9 -13.5t6 -15.5t0 -16.5q-1 -4 -3 -6.5t-5.5 -4.5t-6.5 -3t-8 -2l-7.5 -1.5t-8.5 -1t-8 -0.5q-4 0 -14.5 -1.5t-16 -2t-14 0t-14.5 3.5q-8 3 -13.5 10t-13.5 22t-10 18q-11 18 -33 50.5t-35 55.5q-2 3 -8 13t-9 14
q-13 20 -21 22q-9 3 -53 -2q-45 -5 -49 -8q-5 -5 -7 -23.5t-1 -36.5t0 -33q0 -6 -1 -22t-1.5 -26.5t-3 -22.5t-6.5 -17q-8 -11 -42 -16t-49 5q-14 11 -9 68q3 72 10.5 225t11.5 235q4 60 17 70q11 9 55 11q16 1 87 6.5t98 8.5q87 12 158.5 -14.5t96.5 -81.5q13 -28 15 -73
q1 -89 -54 -151q-39 -44 -88 -63q-5 -3 -24.5 -8t-28.5 -12zM214 311q47 4 68 7q77 9 117 32q27 16 44.5 46t12.5 66q-12 82 -158 75q-36 -2 -138 -13q-5 -19 -10 -106q-5 -85 -1 -109q11 -3 65 2z" />
    <glyph glyph-name="s" unicode="s" horiz-adv-x="610" 
d="M319 636q126 11 205 -39q40 -25 41 -52q0 -31 -31.5 -49.5t-67.5 -12t-46 37.5q-1 3 -2 8.5t-2 9.5t-4 6q-7 6 -34 10t-46 3q-79 -2 -126 -36q-20 -14 -34 -37t-8 -49q7 -34 77 -55q26 -8 105.5 -22t111.5 -28q52 -24 73 -61q16 -28 14 -59t-13 -56.5t-27 -44.5
q-35 -40 -101 -68.5t-135 -34.5q-54 -4 -113.5 5.5t-97.5 30.5q-41 24 -41 44q0 7 3.5 12.5t6.5 7.5t12.5 6.5t10.5 5.5q3 2 10.5 6.5t11.5 7t10.5 4.5t12.5 2t31 -18q65 -47 161 -34q42 5 78 24.5t54 48.5q20 34 2 60t-54 41q-14 5 -91 19q-112 21 -150 38q-56 27 -73 71
q-10 32 -6 63.5t17 56.5q20 36 61 65q71 51 194 62z" />
    <glyph glyph-name="t" unicode="t" horiz-adv-x="626" 
d="M365 543q-3 -9 -4 -18.5t-1.5 -26t-0.5 -20.5q-23 -374 -25 -398q-2 -51 -9 -60q-9 -10 -43 -13t-47 8q-8 9 -4 62q2 30 5.5 96.5t5.5 99.5q13 234 13 260q-14 5 -59 0q-16 -1 -55.5 -4.5t-64.5 -5.5q-47 -2 -57 7q-6 6 -6.5 29t6.5 33q5 6 23 10t35 4.5t41.5 1.5t30.5 1
q76 6 226.5 16.5t188.5 13.5q36 2 43 -10q7 -10 5.5 -30.5t-9.5 -29.5t-56 -11q-20 -2 -58.5 -4t-69.5 -4.5t-54 -6.5z" />
    <glyph glyph-name="u" unicode="u" horiz-adv-x="662" 
d="M595 629q30 2 38 -13q6 -13 1 -63q-10 -156 -11 -189q-3 -62 -5 -92.5t-11 -68t-25 -64.5q-13 -23 -34 -44q-70 -73 -203 -91q-155 -23 -242 37q-35 24 -57 65q-24 48 -21 112q1 24 16 249q1 17 3 63q2 42 10.5 53t45.5 14q38 3 47 -7q6 -6 7 -22t-1.5 -44.5t-2.5 -30.5
q-2 -35 -13 -198q-6 -49 -2.5 -94t23.5 -71q45 -60 159 -50q179 17 194 184q4 47 8 134t5 106q0 6 5 59q2 46 8 53q10 13 58 13z" />
    <glyph glyph-name="v" unicode="v" horiz-adv-x="710" 
d="M683 621q3 -13 -14 -44q-37 -69 -264 -496q-2 -4 -8.5 -18.5t-11 -22.5t-11 -17.5t-12.5 -12.5q-13 -7 -43.5 -8.5t-43.5 4.5q-5 3 -10.5 11.5t-9 16.5t-8.5 21.5t-7 17.5q-6 12 -17 35.5t-16 34.5q-7 14 -16 39t-13 34q-15 35 -64.5 146.5t-76.5 173.5q-14 27 -7 41
t41 18q43 2 53 -4q9 -5 30 -52q13 -31 37 -88t44 -104t39 -90q6 -16 20 -47.5t17 -37.5q0 -1 3 -9.5t5.5 -11.5t6.5 -3q5 0 11.5 9.5t14.5 27t10 20.5q39 72 106 201t85 163l7.5 15t9.5 17.5t9 14t10 9.5q8 5 54 9q31 0 40 -13z" />
    <glyph glyph-name="w" unicode="w" horiz-adv-x="884" 
d="M467 436q-7 -5 -11.5 -13t-8 -20.5t-5.5 -16.5q-9 -22 -61 -161q-13 -31 -34.5 -89t-27.5 -73q-16 -42 -25 -49q-10 -8 -47 -10.5t-50 5.5q-11 7 -24 65q-10 39 -30.5 110t-28.5 100q-8 30 -27.5 99t-30.5 110q-1 4 -5.5 17.5t-6 19.5t-3.5 18.5t2 14.5q5 15 42 18
q45 2 53 -3q4 -2 7 -8t4 -10.5t3.5 -14.5l3.5 -14q7 -26 20.5 -76t20.5 -76q28 -102 41 -152q1 -4 2.5 -12.5t2.5 -13.5t4 -11t7 -10q8 2 16 22q11 26 34 90t38 100q12 30 61 163q17 42 28 47q14 7 49 8t47 -8q7 -6 18 -47q9 -32 39 -138.5t45 -165.5q10 -40 16 -47
q6 4 10 10.5t5.5 12t3.5 14.5t4 13q10 28 30.5 81.5t29.5 78.5q38 104 59 160q15 45 23 51q7 5 51 10q38 2 44 -13q6 -14 -21 -78q-34 -84 -91.5 -236t-77.5 -203q-21 -60 -34 -67q-12 -6 -43 -7.5t-45 4.5q-6 3 -11 11t-9 20t-6.5 22l-6 24t-4.5 19q-4 15 -14.5 49.5
t-14.5 52.5q-6 24 -13 50t-15.5 57.5t-13.5 48.5q-12 39 -18 47z" />
    <glyph glyph-name="x" unicode="x" horiz-adv-x="651" 
d="M560 635q14 3 35.5 1.5t24.5 -14.5q1 -2 1 -4.5t-0.5 -4.5t-1.5 -4.5t-2 -4.5t-3 -4t-3.5 -4t-3.5 -4.5t-4 -4t-4.5 -4l-3.5 -3.5q-129 -141 -188 -203q-2 -2 -11 -10.5t-13.5 -15t-4.5 -10.5q0 -10 27 -37q24 -25 47 -50t57 -64t47 -54q25 -26 31 -32q1 -1 5.5 -6
t6 -6.5t5 -6.5t3.5 -7t2 -8t-1 -9q-3 -15 -45 -17q-44 -5 -59 0q-8 3 -17.5 12t-21.5 25t-14 18q-9 11 -28 31.5t-23 25.5q-13 15 -41 47.5t-33 38.5q-2 2 -8 9.5t-11 12t-9 4.5q-9 0 -32 -29q-27 -30 -84.5 -95.5t-89.5 -101.5q-2 -2 -6.5 -7.5t-7.5 -9t-7.5 -7t-9.5 -5.5
q-10 -4 -57 -7q-39 -2 -42 16q-2 14 27 46q32 34 66 71.5t74.5 82.5t64.5 72q3 3 12.5 11.5t15 15.5t5.5 12q0 6 -26 32q-18 18 -48 51t-35 39q-8 8 -26 28.5t-29 31.5q-8 7 -28 29q-22 24 -21 36t11.5 16t27.5 5h6q52 5 64 0q9 -4 16.5 -11t17.5 -20t13 -16
q7 -8 23.5 -25.5t21.5 -23.5q11 -13 34.5 -38.5t32.5 -36.5q19 -22 23 -22q6 -1 31 24q32 34 86 93.5t71 78.5q21 24 28 26q4 2 39 5z" />
    <glyph glyph-name="y" unicode="y" horiz-adv-x="595" 
d="M292 252q-3 8 -9 14t-14 13t-11 11q-23 24 -70 71q-22 23 -68.5 70t-72.5 72q-1 1 -7 6t-9 8t-7 7.5t-5.5 9t-1.5 9.5q2 15 40 23t61 2q10 -3 20 -11.5t22 -22t17 -18.5q13 -13 50 -52t58 -60q5 -5 17 -18t21 -21.5t18 -14.5q34 63 74 145q6 11 17 34.5t19 38.5
q2 4 7 14.5t9 17.5t10 15.5t12.5 13.5t13.5 5q19 1 41.5 -8.5t25.5 -22.5q2 -15 -33 -81q-22 -42 -39 -75q-34 -69 -99 -196.5t-91 -179.5q-2 -3 -5.5 -11t-5.5 -12.5t-6 -11.5t-7 -12t-6.5 -9.5t-7 -7t-7.5 -3.5q-18 -4 -44.5 7t-28.5 24q-2 9 2 19.5t11.5 23.5t8.5 15
q13 28 40 79.5t40 79.5z" />
    <glyph glyph-name="z" unicode="z" horiz-adv-x="690" 
d="M195 96q7 -4 49 -1q200 13 262 18q6 0 25.5 2t31 3t25 -0.5t18.5 -6.5q9 -9 8.5 -32t-9.5 -31q-8 -8 -67 -12q-83 -5 -234 -15.5t-198 -13.5q-54 -5 -63 7q-5 6 -5 23.5t3 26.5q3 10 10.5 19.5t24 26l17.5 17.5q101 109 224 237q104 108 155 165q1 1 5 3.5t5.5 5.5t0.5 7
q-11 3 -50 1q-51 -3 -141 -9t-115 -8q-6 0 -19 -1.5t-23 -2.5t-21.5 -1t-19.5 2t-12 6q-8 9 -7 30.5t8 29.5q4 5 14.5 8t25.5 4.5t28 2.5t29.5 2t21.5 1q71 5 202.5 13t182.5 11q41 4 50 -11q4 -8 3.5 -25.5t-4.5 -26.5q-3 -7 -10 -15.5t-13.5 -14.5t-18 -16.5t-14.5 -13.5
q-11 -11 -29 -31t-26 -28q-24 -24 -62.5 -66t-47.5 -52q-16 -17 -85.5 -91t-109.5 -114q-20 -20 -25 -33z" />
    <glyph glyph-name="braceleft" unicode="{" horiz-adv-x="526" 
d="M440 626q39 -30 38 -45q0 -14 -23.5 -28t-42.5 -14q-7 0 -15.5 4t-14 7.5t-14 10.5t-12.5 9q-18 12 -50 34.5t-53 36.5q-1 0 -5 3t-5.5 4t-5.5 3.5t-6 4t-5.5 4t-5 4.5t-4 5t-3.5 5.5t-1.5 5.5t-0.5 6q0 15 27 29q36 18 48 18q7 0 15.5 -4t14 -7.5t16 -11.5t13.5 -11
q13 -10 44.5 -34t50.5 -39zM274 315q-8 -2 -67 0q-12 1 -61 5q-7 1 -23 1t-28.5 1t-26.5 3.5t-22.5 8.5t-9.5 15q-1 13 18 42t31 32h3q0 2 2 2q18 1 37 -0.5t47.5 -6.5t34.5 -6q5 -1 25 -2.5t34.5 -3.5t29 -7.5t16.5 -14.5q4 -15 -11.5 -40t-28.5 -29zM372 202
q17 3 44.5 -9.5t28.5 -29.5q0 -5 -2 -10.5t-7.5 -11t-9.5 -9t-11 -9t-9 -7.5q-14 -11 -45 -34t-50 -38q-4 -3 -15 -12.5t-19 -15t-16 -6.5q-19 -4 -50 13q-33 15 -34 32q0 4 0.5 7.5t3.5 7.5t5 6.5t7 6.5t7 5.5t9 6t8 5.5q19 13 50.5 36t47.5 34q5 3 17 11.5t21.5 13.5
t18.5 7z" />
    <glyph glyph-name="bar" unicode="|" horiz-adv-x="314" 
d="M171 720q33 2 42 -11q7 -11 1 -86q-11 -155 -24 -442q-1 -27 -5 -89q0 -5 -0.5 -17.5t-0.5 -20t-1 -17t-3.5 -16t-5.5 -9.5q-8 -9 -34.5 -11.5t-39.5 9.5q-10 11 -5 82q5 94 15 272t14 258q1 8 1.5 30.5t1.5 35t5 18.5q8 12 39 14z" />
    <glyph glyph-name="braceright" unicode="}" horiz-adv-x="518" 
d="M145 534q-18 -1 -42.5 12.5t-25.5 28.5q0 5 2 10t7.5 10.5t9 8.5t11.5 9t9 7q19 15 50.5 40t42.5 34q2 2 12.5 10.5t15.5 11.5t14 7.5t16 4.5q16 1 46.5 -14t31.5 -31q0 -8 -5 -15.5t-9 -11t-15.5 -10.5t-12.5 -8q-17 -12 -49.5 -36t-52.5 -37q-43 -30 -56 -31zM466 409
q21 -27 19 -42q-2 -13 -20 -20.5t-52 -12.5t-37 -6q-6 -1 -27.5 -6t-34.5 -7q-48 -9 -61 -5q-10 3 -29 24q-18 22 -16 38q1 7 8 13t19 10t23 7t24.5 6t18.5 4q76 22 107 26h3q18 2 29 -4.5t26 -24.5zM269 96q3 -2 11 -7.5t12 -8.5t9 -8t7.5 -10t2.5 -10q0 -17 -34 -32
q-35 -17 -48 -15q-9 1 -17 6.5t-20 15.5t-15 12q-12 10 -43.5 33.5t-51.5 39.5q-2 1 -7.5 5.5t-8.5 6.5t-8 7t-8 8.5t-5 8t-2 9.5q0 14 19.5 25.5t37.5 14.5q8 -1 10.5 0.5t10 -2t10 -4t10 -5l10 -6t9.5 -6.5t9 -6q16 -11 47.5 -34.5t52.5 -37.5z" />
    <glyph glyph-name="asciitilde" unicode="~" horiz-adv-x="637" 
d="M513 388q17 6 36 -8t21 -30q1 -18 -28 -47q-75 -73 -174 -63q-28 3 -77 23q-8 3 -23 11t-23.5 11.5t-26 7t-31.5 -2.5q-22 -5 -50 -31q-3 -2 -13.5 -12.5t-18 -16t-14.5 -5.5q-16 -1 -32 13.5t-16 28.5q-1 19 26 43q72 72 165 66q31 -1 79 -21q8 -3 25.5 -11.5t26.5 -12
t28.5 -7.5t31.5 2q20 5 45 26q5 4 19 17.5t24 18.5z" />
    <glyph glyph-name="quoteleft" unicode="&#x2018;" horiz-adv-x="302" 
d="M161 451q-33 -17 -44 -7q-13 14 -13 68q-1 33 -5 131q-2 14 -1.5 33.5t7.5 29.5q8 12 33 23.5t37 4.5q7 -4 10.5 -13t4.5 -16t2 -19t1 -15q7 -54 13 -129q0 -3 1 -14.5t1.5 -18.5t0 -16t-3.5 -13q-2 -5 -7 -9t-9 -6t-13.5 -7t-14.5 -7z" />
    <glyph glyph-name="quoteright" unicode="&#x2019;" horiz-adv-x="344" 
d="M221 730q36 2 42 -12q6 -16 -16 -67q-13 -30 -50 -121q-1 -3 -4.5 -12t-5.5 -14t-5.5 -11.5t-7 -10.5t-8.5 -7q-13 -7 -39 -7.5t-37 11.5q-4 6 -4 15.5t2.5 16.5t6.5 18t5 14q15 48 42 123q17 50 26 56q8 6 53 8z" />
    <glyph glyph-name="quotedblleft" unicode="&#x201c;" horiz-adv-x="509" 
d="M75 727q6 21 45 16q41 -2 50 -8q4 -2 8 -9t6.5 -13t6.5 -16.5t5 -14.5q3 -8 18.5 -49.5t23.5 -66.5q1 -4 5.5 -16t6 -17t3.5 -17t-2 -15q-5 -12 -32 -14.5t-43 5.5q-5 2 -9 5.5t-7.5 9.5t-5.5 10.5t-5 13t-5 12.5q-28 71 -50 118q-23 53 -19 66zM307 729q38 -2 47 -7
q4 -2 7.5 -5.5t6.5 -10t4.5 -10t4.5 -13.5t4 -12q8 -24 23 -62.5t21 -55.5q19 -49 16 -65q-3 -17 -36 -17.5t-43 6.5q-13 7 -32 55q-34 79 -52 123q-1 3 -4.5 11.5t-5.5 14.5t-4 14t-1 14.5t4 11.5q8 10 40 8z" />
    <glyph glyph-name="quotedblright" unicode="&#x201d;" horiz-adv-x="530" 
d="M442 737q4 -13 -19 -66q-22 -47 -50 -118q-2 -4 -5 -12.5t-5 -13t-5.5 -10.5t-7.5 -9.5t-9 -5.5q-16 -8 -43 -5.5t-32 14.5q-4 3 -2 15t3.5 17t6 17t5.5 16q8 25 23.5 66.5t18.5 49.5q1 4 5 14.5t6.5 16.5t6.5 13t8 9q9 6 50 8q39 5 45 -16zM210 739q32 2 40 -8
q3 -5 4 -11.5t-1 -14.5t-4 -14t-5.5 -14.5t-4.5 -11.5q-18 -44 -52 -123q-19 -48 -32 -55q-10 -7 -43 -6.5t-36 17.5q-3 16 16 65q6 17 21 55.5t23 62.5q1 2 4 12t4.5 13.5t4.5 10t6.5 10t7.5 5.5q9 5 47 7z" />
    <glyph glyph-name="CR" horiz-adv-x="500" 
 />
    <glyph glyph-name="_127" horiz-adv-x="500" 
 />
    <glyph glyph-name="NULL" horiz-adv-x="0" 
 />
  </font>
</defs>
</svg>
